<svg version="1.1" id="Layer_1" xmlns="http://www.w3.org/2000/svg" xmlns:xlink="http://www.w3.org/1999/xlink" x="0px" y="0px"
	 width="100%" viewBox="0 0 4092 4158" enable-background="new 0 0 4092 4158" xml:space="preserve">
<path fill="#FFFFFF" opacity="1.000000" stroke="none" 
	d="
M2384.000000,4164.000000 
	C2165.245361,4164.000000 1946.490601,4164.000000 1725.959229,4162.657227 
	C1723.953857,4159.542969 1723.724976,4157.771484 1723.836670,4154.152344 
	C1724.221558,3878.863770 1724.269287,3605.422607 1724.277832,3331.981689 
	C1724.277954,3328.115234 1723.788574,3324.249023 1723.470703,3319.537598 
	C1715.474487,3315.501465 1707.868652,3311.662354 1699.534424,3306.727539 
	C1692.590210,3302.392334 1686.374756,3299.152588 1680.105835,3295.942383 
	C1680.052368,3295.972412 1680.056641,3295.850830 1679.307373,3294.721191 
	C1663.113159,3284.994873 1647.668091,3276.397705 1632.145630,3267.903564 
	C1632.068237,3268.006592 1632.165771,3267.779053 1631.455078,3266.679443 
	C1624.537842,3262.380371 1618.331421,3259.180664 1612.086182,3255.955811 
	C1612.047485,3255.930664 1611.965210,3255.888428 1611.608398,3255.161133 
	C1610.482178,3253.501709 1609.506714,3253.163574 1607.444092,3252.655518 
	C1605.803955,3251.722412 1605.044922,3251.553467 1603.637695,3250.340820 
	C1597.989990,3246.653564 1592.990601,3244.009277 1587.254883,3240.667969 
	C1585.847168,3239.890869 1585.176025,3239.810791 1583.680420,3238.643311 
	C1569.932861,3230.391602 1557.009766,3223.226807 1544.059326,3215.980957 
	C1544.031982,3215.899658 1543.861572,3215.919434 1543.535889,3215.176270 
	C1542.463867,3213.470215 1541.494995,3213.117188 1539.409912,3212.634766 
	C1537.753540,3211.765625 1536.990845,3211.636230 1535.486816,3210.431152 
	C1528.569580,3206.176025 1522.393799,3202.996582 1516.145874,3199.909668 
	C1516.073730,3200.002197 1516.146484,3199.785645 1515.402832,3198.646484 
	C1491.582764,3183.930420 1468.547241,3170.283447 1445.400635,3156.827148 
	C1439.810303,3153.577393 1433.852661,3150.959473 1427.275269,3146.960938 
	C1417.746216,3141.187988 1409.005737,3136.504639 1399.534668,3130.727539 
	C1392.589600,3126.392822 1386.375244,3123.152100 1380.106689,3119.941406 
	C1380.052612,3119.971924 1380.057495,3119.848633 1379.309204,3118.718262 
	C1363.115356,3108.991943 1347.669678,3100.395508 1332.147949,3091.902832 
	C1332.071899,3092.006592 1332.165649,3091.778320 1331.410645,3090.650391 
	C1316.434326,3081.471436 1302.213013,3073.420410 1287.255615,3064.670898 
	C1285.847900,3063.891846 1285.176270,3063.811279 1283.680542,3062.643066 
	C1269.933960,3054.390381 1257.011597,3047.224854 1244.061768,3039.979492 
	C1244.034302,3039.899658 1243.866211,3039.917236 1243.541016,3039.171875 
	C1242.468628,3037.459961 1241.497681,3037.106201 1239.408691,3036.628418 
	C1237.752686,3035.762695 1236.990967,3035.633301 1235.451172,3034.401611 
	C1197.027710,3011.158203 1159.396973,2988.991699 1121.706543,2966.927490 
	C1118.918091,2965.294922 1115.698608,2964.398193 1112.488037,2963.317871 
	C1112.296387,2963.476562 1112.792725,2963.445068 1112.382812,2962.466309 
	C1110.672729,2961.045654 1109.372681,2960.603760 1108.035645,2960.042236 
	C1107.998901,2959.922852 1107.759277,2959.993652 1107.142578,2959.025391 
	C1104.404175,2957.304932 1102.282471,2956.553223 1100.082886,2955.900879 
	C1100.004883,2956.000000 1100.143433,2955.792236 1099.440430,2954.688965 
	C1092.546143,2950.357422 1086.354736,2947.128906 1080.106812,2943.940430 
	C1080.050293,2943.980225 1080.070312,2943.844727 1079.321533,2942.713867 
	C1063.123047,2932.988525 1047.673462,2924.394043 1032.146729,2915.903076 
	C1032.069580,2916.006592 1032.166138,2915.777832 1031.455811,2914.682129 
	C1023.161316,2909.477783 1015.577026,2905.369385 1007.307129,2900.593506 
	C1006.621521,2899.926025 1004.726318,2899.661133 1004.041992,2898.599609 
	C998.236389,2894.815430 993.115112,2892.092529 987.257141,2888.671387 
	C985.848633,2887.892334 985.176819,2887.811768 983.670715,2886.641602 
	C969.919373,2878.383057 957.002441,2871.213623 944.058105,2863.978760 
	C944.030762,2863.913330 943.889160,2863.919922 943.557129,2863.174561 
	C942.472595,2861.463135 941.497742,2861.108887 939.406372,2860.629883 
	C937.750916,2859.763672 936.989563,2859.634277 935.450439,2858.402344 
	C902.724182,2838.489502 870.795349,2819.645752 838.798157,2800.918701 
	C835.426758,2798.945312 831.652527,2797.660156 827.280151,2794.963623 
	C817.752625,2789.188477 809.010010,2784.505127 799.493713,2778.696289 
	C784.477722,2769.506592 770.235474,2761.442383 755.170044,2752.663086 
	C753.630676,2751.822510 752.914490,2751.697510 751.483459,2750.476562 
	C744.589478,2746.181885 738.410339,2742.983398 732.144531,2739.895752 
	C732.057800,2740.006592 732.184631,2739.769043 731.512451,2738.643066 
	C724.781921,2734.078125 718.723511,2730.638916 712.311890,2727.325928 
	C711.958740,2727.452148 712.695251,2727.319092 712.119141,2726.212402 
	C707.985901,2723.066895 704.428772,2721.027588 700.654053,2719.132812 
	C700.436340,2719.277100 700.957886,2719.302246 700.553955,2718.290039 
	C698.831665,2716.750000 697.513306,2716.221680 696.109253,2715.837891 
	C696.023499,2715.982422 696.296448,2715.786621 695.937134,2714.843750 
	C694.390625,2713.376709 693.203552,2712.852295 691.981018,2712.141846 
	C691.945618,2711.955811 691.572937,2712.023682 691.309937,2711.272461 
	C690.383667,2709.520996 689.459290,2709.114990 687.710938,2708.590332 
	C687.148071,2707.877441 685.376404,2707.477539 684.722839,2706.323975 
	C677.373230,2699.903809 670.677185,2694.637207 663.124817,2688.282471 
	C651.239502,2676.641846 640.210510,2666.088867 628.747559,2654.273438 
	C623.051331,2647.140869 617.789062,2641.270508 612.359619,2635.711426 
	C612.192566,2636.022705 612.629395,2635.466797 612.246094,2634.158203 
	C602.607849,2619.160889 593.352783,2605.471924 583.979858,2590.380615 
	C579.581543,2580.656250 575.301086,2572.334717 570.913330,2562.582520 
	C566.117310,2548.668457 561.428528,2536.184814 556.730225,2522.068604 
	C554.342102,2509.649902 551.963440,2498.863525 549.862854,2486.741211 
	C549.233398,2480.936279 548.325867,2476.467529 547.644287,2470.135742 
	C547.541870,2453.635742 546.928345,2438.998535 546.926575,2424.361328 
	C546.875366,1997.535156 546.880371,1570.708862 546.905701,1143.882690 
	C546.906555,1129.252930 547.209656,1114.623047 547.833557,1098.440186 
	C548.545898,1092.589966 548.796509,1088.292725 549.865662,1082.692261 
	C552.022583,1073.214478 553.360962,1065.040161 555.260071,1055.566284 
	C561.104065,1036.178711 566.387329,1018.090515 572.558167,998.891479 
	C579.659790,983.866272 585.873840,969.951965 593.123901,955.248291 
	C597.426880,948.315552 600.693970,942.172302 603.992920,936.015076 
	C604.024780,936.001160 604.015564,935.931396 605.100098,935.157959 
	C616.156189,920.299744 626.127686,906.215027 636.052002,892.068848 
	C636.004883,892.007324 636.130127,892.097351 637.352051,891.555969 
	C652.838013,876.321716 667.101990,861.628784 682.471741,846.459839 
	C685.161377,844.233215 686.745178,842.482605 689.608337,840.321289 
	C697.211609,834.797791 703.535583,829.684937 710.873291,824.423523 
	C713.292969,822.887695 714.698792,821.500549 717.456909,819.799805 
	C739.373108,808.038025 759.937073,796.589844 781.491516,785.014954 
	C782.481934,784.888245 784.063782,783.669434 785.533691,783.651123 
	C800.765198,778.483215 814.526672,773.333679 829.890015,768.240906 
	C839.830750,766.225220 848.169678,764.152710 857.393921,762.251526 
	C859.578308,762.252808 860.546143,761.595032 862.713745,760.600525 
	C868.266907,760.074768 872.289246,759.397949 877.540527,758.928162 
	C881.024963,758.263550 883.280396,757.391968 887.283081,756.912231 
	C901.655701,756.851135 914.280640,756.017517 926.906311,756.005188 
	C1032.024414,755.902466 1137.142456,755.966858 1242.260620,755.919739 
	C1249.558716,755.916443 1256.856567,755.423096 1265.695312,756.106567 
	C1267.860352,764.940979 1269.029053,772.826294 1269.031006,780.711853 
	C1269.120972,1145.889160 1269.084351,1511.066406 1269.184082,1876.243774 
	C1269.188965,1894.192993 1270.240479,1912.143433 1270.876831,1930.090820 
	C1272.748535,1982.885742 1286.935669,2032.303345 1310.753418,2079.331543 
	C1369.447632,2195.223145 1492.425537,2280.524414 1634.894165,2281.446777 
	C1754.837891,2282.223633 1874.790649,2281.621338 1994.739380,2281.563232 
	C1999.900146,2281.560791 2005.060791,2280.894043 2010.206909,2280.537598 
	C2011.041870,2277.755371 2012.080078,2275.911133 2012.080322,2274.066895 
	C2012.169678,1770.284546 2012.188721,1266.502197 2012.143555,762.719849 
	C2012.143311,760.876953 2011.191406,759.034241 2010.315552,755.853088 
	C2002.522827,755.639648 1994.696777,755.239136 1986.870850,755.237976 
	C1756.969116,755.204590 1527.067261,755.211304 1297.165527,755.208130 
	C1291.168335,755.208069 1285.143066,755.505859 1279.185547,755.008911 
	C1276.060303,754.748169 1273.054077,753.062195 1270.342041,750.178101 
	C1270.639404,602.690857 1270.676392,457.045044 1270.374390,311.399933 
	C1270.349731,299.532257 1268.008911,287.669373 1267.005127,274.850525 
	C1267.299683,272.364716 1266.592285,271.348572 1265.245605,271.044830 
	C1265.347412,271.241333 1265.569458,270.858490 1265.703979,269.432892 
	C1264.600098,262.426941 1263.361572,256.846588 1262.014893,249.799042 
	C1260.970459,245.554932 1260.034302,242.778015 1259.148560,238.515121 
	C1256.781250,229.532211 1254.743896,221.886337 1251.877441,214.565109 
	C1241.580200,188.265518 1230.571777,162.309082 1211.681885,139.503326 
	C1210.474731,137.579773 1209.449707,136.691681 1208.112061,134.513245 
	C1202.594116,127.358215 1197.388794,121.493546 1191.750732,114.364334 
	C1174.267822,95.026154 1157.708984,76.394623 1135.025635,62.994179 
	C1129.622803,59.092674 1124.807495,56.248493 1119.286499,52.710480 
	C1118.580811,52.016647 1116.627808,51.694050 1115.845215,50.533989 
	C1078.296265,27.344889 1038.635132,13.560488 996.048706,6.739693 
	C995.886047,5.834949 996.000000,4.000000 996.000000,4.000000 
	C1700.088013,4.000000 2404.176025,4.000000 3110.324219,4.953228 
	C3112.384033,5.906456 3111.854736,7.777792 3110.241699,7.943413 
	C3091.867432,12.063964 3074.750732,14.917084 3058.412354,20.184475 
	C3012.998535,34.825619 2972.263672,57.715496 2937.175293,92.694458 
	C2931.896240,97.763596 2927.945801,102.161278 2922.927246,107.099068 
	C2883.042969,150.239334 2856.398438,199.120071 2844.711670,257.514832 
	C2843.009521,267.338318 2841.891846,275.667328 2840.299805,285.469177 
	C2839.497803,293.991241 2839.170166,301.040436 2838.136230,309.829285 
	C2837.348389,313.559937 2837.195801,315.550934 2837.195557,317.541962 
	C2837.179932,457.737946 2837.167969,597.933960 2837.207764,738.129944 
	C2837.208984,742.757263 2837.742188,747.384521 2836.616699,753.145752 
	C2827.242920,754.605225 2819.280273,755.213257 2811.317627,755.215027 
	C2582.754639,755.265991 2354.191895,755.256042 2125.628906,755.256714 
	C2119.631592,755.256714 2113.626709,755.081299 2107.640137,755.338257 
	C2103.897461,755.498840 2100.183105,756.317566 2095.540283,756.969604 
	C2095.540283,762.678528 2095.539062,767.261597 2095.540283,771.844666 
	C2095.665527,1273.611816 2095.791260,1775.378906 2095.952881,2277.145996 
	C2095.953125,2277.724854 2096.463135,2278.324219 2096.796631,2278.876465 
	C2097.139893,2279.445312 2097.559570,2279.968262 2098.929443,2281.894043 
	C2105.160400,2281.894043 2112.401123,2281.894287 2119.642090,2281.894043 
	C2234.256592,2281.893555 2348.871338,2281.884033 2463.485840,2281.900391 
	C2485.489746,2281.903564 2507.335205,2280.385498 2529.071045,2276.688477 
	C2607.761963,2263.303223 2675.530762,2228.158936 2731.150635,2171.464355 
	C2803.013184,2098.212891 2838.745605,2009.263062 2838.782227,1906.512085 
	C2838.916016,1531.349121 2838.833496,1156.186157 2838.847656,781.023193 
	C2838.847900,774.363281 2838.675537,767.666504 2839.349121,761.065125 
	C2839.562012,758.977905 2842.270996,757.145447 2845.692871,755.548828 
	C2955.853027,755.935059 3064.157715,755.948120 3172.462402,756.024658 
	C3189.002441,756.036316 3205.542480,756.341431 3223.041504,757.413818 
	C3226.562744,758.483643 3229.125488,758.650513 3233.130371,759.350708 
	C3238.650879,760.119629 3242.728760,760.355103 3248.013184,761.519653 
	C3258.112793,764.127930 3267.005859,765.807190 3276.833984,767.996399 
	C3278.472900,768.411865 3279.176514,768.317505 3281.010986,769.143921 
	C3283.385986,770.525146 3284.612061,771.042297 3285.876465,771.437805 
	C3401.719727,807.678101 3483.495850,881.866150 3532.429932,992.680176 
	C3547.570801,1026.967651 3555.129639,1063.252686 3560.697754,1101.396973 
	C3560.827148,1104.600464 3561.215332,1106.413696 3561.417480,1109.119019 
	C3561.231445,1110.011108 3562.125732,1111.599243 3561.730469,1113.272949 
	C3561.910889,1118.255249 3562.486328,1121.563721 3562.643555,1125.532715 
	C3562.199463,1127.362915 3562.699951,1128.228760 3563.347412,1130.582642 
	C3562.926758,1134.372192 3562.849121,1136.369995 3562.849121,1138.367676 
	C3562.841553,1568.003540 3562.835938,1997.639282 3562.873047,2427.275146 
	C3562.873535,2432.577637 3563.421143,2437.880127 3563.125488,2443.716553 
	C3561.862793,2445.337891 3562.014404,2446.294189 3562.232422,2448.647949 
	C3561.648438,2453.565918 3561.824219,2456.954834 3561.571777,2461.159668 
	C3561.143555,2461.975098 3561.559082,2463.769775 3561.042725,2465.082520 
	C3560.663574,2468.261719 3560.801025,2470.127930 3560.412598,2473.568848 
	C3558.994629,2480.381104 3558.036133,2485.608154 3557.218994,2490.857422 
	C3546.170166,2561.822021 3512.845459,2621.095215 3462.515869,2671.463379 
	C3456.905273,2677.077881 3451.412109,2682.809814 3445.496338,2688.785645 
	C3445.127930,2689.084229 3444.446289,2689.743652 3443.310547,2690.225098 
	C3413.461670,2714.661377 3382.356201,2735.038086 3350.105713,2753.932129 
	C3062.980225,2922.148193 2775.988770,3090.593506 2488.956055,3258.968262 
	C2457.954346,3277.153809 2426.873291,3295.206543 2396.007324,3313.619629 
	C2391.833252,3316.109863 2385.458740,3317.085693 2384.902344,3325.850586 
	C2384.433838,3335.663330 2384.348633,3343.646973 2384.348389,3351.630371 
	C2384.341553,3614.440186 2384.345459,3877.249756 2384.328125,4140.059570 
	C2384.327637,4148.039551 2384.114258,4156.020020 2384.000000,4164.000000 
z"/>
<path fill="#4FAE30" opacity="1.000000" stroke="none" 
	d="
M984.505066,2887.730957 
	C985.176819,2887.811768 985.848633,2887.892334 987.330200,2890.143555 
	C988.512756,2896.651367 990.515076,2899.558105 995.157715,2899.760010 
	C998.339783,2899.898682 1001.536255,2899.705811 1004.726318,2899.661133 
	C1004.726318,2899.661133 1006.621521,2899.926025 1007.352234,2902.077148 
	C1008.525696,2912.098389 1012.955750,2915.760254 1020.570984,2915.901611 
	C1024.433960,2915.973389 1028.300903,2915.825928 1032.166138,2915.777832 
	C1032.166138,2915.777832 1032.069580,2916.006592 1032.100098,2917.474121 
	C1032.120239,2926.591064 1035.581299,2931.018311 1043.486572,2931.958496 
	C1047.224487,2932.403076 1052.802002,2932.565674 1054.201904,2934.879395 
	C1060.605469,2945.461914 1070.376709,2944.081543 1080.070312,2943.844727 
	C1080.070312,2943.844727 1080.050293,2943.980225 1080.098145,2945.518066 
	C1080.215088,2952.461914 1082.559814,2955.783936 1088.329834,2955.842285 
	C1092.267090,2955.882324 1096.205566,2955.812744 1100.143433,2955.792236 
	C1100.143433,2955.792236 1100.004883,2956.000000 1100.657715,2956.913574 
	C1103.460205,2958.549072 1105.609741,2959.271240 1107.759277,2959.993652 
	C1107.759277,2959.993652 1107.998901,2959.922852 1108.556763,2960.915527 
	C1110.340698,2962.420654 1111.566650,2962.932861 1112.792725,2963.445312 
	C1112.792725,2963.445068 1112.296387,2963.476562 1112.447021,2964.765137 
	C1123.342529,2980.591064 1140.522339,2986.956299 1153.761841,2998.340820 
	C1155.109985,2999.500000 1157.478149,2999.766113 1159.409912,2999.895996 
	C1164.369385,3000.229248 1168.510498,3001.995605 1171.093140,3006.321533 
	C1174.026367,3011.235107 1178.593018,3013.982422 1183.747070,3015.275635 
	C1189.152344,3016.631592 1193.344116,3019.372559 1197.294556,3023.081543 
	C1199.121216,3024.796631 1202.203125,3027.178711 1203.927612,3026.656494 
	C1211.854858,3024.254639 1214.113892,3029.690918 1217.845703,3034.591553 
	C1223.084229,3041.470947 1226.394897,3041.213623 1236.229248,3035.503906 
	C1236.990967,3035.633301 1237.752686,3035.762695 1239.856201,3037.234863 
	C1241.955566,3039.286621 1242.844971,3039.733154 1243.866211,3039.917236 
	C1243.866211,3039.917236 1244.034302,3039.899658 1244.071411,3041.500732 
	C1245.506470,3045.767578 1246.278320,3049.277344 1248.455811,3050.892334 
	C1251.386108,3053.065918 1257.061768,3052.742432 1258.657227,3055.300781 
	C1265.173706,3065.749268 1274.915161,3064.037842 1284.504761,3063.730469 
	C1285.176270,3063.811279 1285.847900,3063.891846 1287.299561,3066.121582 
	C1288.350708,3074.207031 1291.094238,3078.113770 1297.058594,3079.621826 
	C1300.177612,3080.410156 1304.727539,3080.606201 1306.021851,3082.690186 
	C1312.476318,3093.083252 1322.198364,3092.442139 1332.165649,3091.778320 
	C1332.165649,3091.778320 1332.071899,3092.006592 1332.101318,3093.474121 
	C1332.120117,3102.588867 1335.579590,3107.016846 1343.482666,3107.957764 
	C1347.219971,3108.402832 1352.798706,3108.562744 1354.196533,3110.875000 
	C1360.594971,3121.458740 1370.365234,3120.082031 1380.057495,3119.848633 
	C1380.057495,3119.848633 1380.052612,3119.971924 1380.099365,3121.523438 
	C1380.221191,3128.521484 1382.630249,3131.799072 1388.406006,3131.849854 
	C1392.358643,3131.884766 1396.312256,3131.833984 1400.265381,3131.821533 
	C1409.005737,3136.504639 1417.746216,3141.187988 1427.282227,3148.433838 
	C1428.463867,3152.926758 1428.411743,3156.300049 1429.301758,3156.570557 
	C1442.611206,3160.611572 1448.779297,3176.981689 1464.432983,3176.882324 
	C1465.569458,3176.875000 1467.211792,3177.808838 1467.777832,3178.790039 
	C1473.661011,3188.989258 1485.178955,3189.566650 1493.786865,3194.900391 
	C1501.438599,3199.641846 1508.378540,3199.715088 1516.146484,3199.785645 
	C1516.146484,3199.785645 1516.073730,3200.002197 1516.097656,3201.441650 
	C1516.045166,3208.698730 1517.857666,3213.487305 1523.939941,3215.221680 
	C1528.656616,3216.566895 1533.207397,3216.288330 1536.228149,3211.506836 
	C1536.990845,3211.636230 1537.753540,3211.765625 1539.857666,3213.238770 
	C1541.955322,3215.289307 1542.842773,3215.734863 1543.861572,3215.919434 
	C1543.861572,3215.919434 1544.031982,3215.899658 1544.069824,3217.501953 
	C1545.506348,3221.769287 1546.279297,3225.278320 1548.456787,3226.893311 
	C1551.387085,3229.066650 1557.063232,3228.742432 1558.658325,3231.300537 
	C1565.174438,3241.749512 1574.915405,3240.037842 1584.504761,3239.730469 
	C1585.176025,3239.810791 1585.847168,3239.890869 1587.290283,3242.061768 
	C1591.869385,3256.627197 1595.093262,3258.064453 1604.286011,3251.384277 
	C1605.044922,3251.553467 1605.803955,3251.722412 1607.905640,3253.254883 
	C1610.027222,3255.312988 1610.932861,3255.736328 1611.965210,3255.888428 
	C1611.965210,3255.888428 1612.047485,3255.930664 1612.089844,3257.529541 
	C1612.229492,3264.538086 1614.629028,3267.805664 1620.370850,3267.847900 
	C1624.302002,3267.876709 1628.234131,3267.805664 1632.165771,3267.779297 
	C1632.165771,3267.779053 1632.068237,3268.006592 1632.099365,3269.474609 
	C1632.120483,3278.589844 1635.580322,3283.017090 1643.482910,3283.958008 
	C1647.220093,3284.402832 1652.798950,3284.562988 1654.196289,3286.875000 
	C1660.593506,3297.460938 1670.365723,3296.079346 1680.056641,3295.850830 
	C1680.056641,3295.850830 1680.052368,3295.972412 1680.098999,3297.524170 
	C1680.220825,3304.521484 1682.629639,3307.798340 1688.404785,3307.849609 
	C1692.357056,3307.884521 1696.310059,3307.835205 1700.262939,3307.823242 
	C1707.868652,3311.662354 1715.474487,3315.501465 1723.470703,3319.537598 
	C1723.788574,3324.249023 1724.277954,3328.115234 1724.277832,3331.981689 
	C1724.269287,3605.422607 1724.221558,3878.863770 1722.965210,4154.152344 
	C1721.753174,4156.000000 1719.998535,4156.005859 1718.124023,4156.002441 
	C1259.987305,4155.999512 803.725098,4155.999023 347.462860,4156.009277 
	C340.805420,4156.009766 334.145447,4156.069336 327.491333,4156.261719 
	C322.603455,4156.402832 320.705688,4159.683594 320.000000,4164.000000 
	C318.222229,4164.000000 316.444427,4164.000000 312.253113,4162.843750 
	C304.530487,4161.327148 299.221436,4160.966797 292.498444,4160.998047 
	C287.300964,4160.569336 283.517456,4159.750000 278.822754,4158.098145 
	C275.477936,4157.010254 273.044312,4156.754395 269.063232,4156.662109 
	C263.502960,4155.903320 259.490143,4154.981445 254.865204,4153.532227 
	C253.269821,4152.475098 252.222534,4152.267090 249.633865,4152.461914 
	C237.238647,4148.946289 226.320786,4145.350586 215.445114,4140.283691 
	C212.030548,4131.167480 210.066788,4130.847656 202.251648,4136.739258 
	C193.729630,4132.936035 186.575226,4129.270996 179.566498,4124.005859 
	C180.067612,4116.799316 179.134262,4111.836426 172.781479,4109.195312 
	C168.054230,4110.282715 162.959381,4111.454590 157.266602,4112.694336 
	C156.668686,4112.762695 156.000824,4111.761230 155.996277,4110.225586 
	C155.694260,4105.470215 155.396774,4102.249512 155.127472,4099.334473 
	C150.060471,4096.332520 144.775818,4094.480713 141.320221,4090.875732 
	C135.034119,4084.318115 127.747444,4083.437744 119.792557,4084.200684 
	C120.000267,4084.048584 119.648270,4084.425293 119.756973,4082.819824 
	C117.515686,4058.899414 111.309875,4053.002441 89.401909,4052.286377 
	C88.755699,4052.265381 88.104851,4052.386475 87.684875,4052.242676 
	C87.913567,4052.044189 87.559837,4052.535889 87.695526,4050.955078 
	C88.258469,4043.420166 87.791313,4037.838867 83.192497,4033.196533 
	C80.492447,4030.470947 77.859398,4027.420410 76.140099,4024.036377 
	C72.628143,4017.124512 66.900536,4015.579102 58.825325,4015.289551 
	C48.930969,3999.696533 39.251759,3985.320557 36.019905,3968.195801 
	C42.059460,3966.762939 44.127083,3964.198486 41.055687,3959.699463 
	C38.025108,3955.260498 34.034374,3952.099609 27.508747,3950.926270 
	C25.636484,3945.614258 24.549765,3941.375977 24.114323,3935.618408 
	C28.978657,3927.025146 28.891272,3919.248047 27.153036,3911.763428 
	C25.683197,3905.434082 22.568285,3899.521484 13.535950,3899.620361 
	C12.885990,3896.448975 12.843314,3894.226074 14.225418,3891.960938 
	C18.899677,3891.583252 22.811909,3891.249756 22.957333,3887.292725 
	C23.060436,3884.487305 21.758953,3880.787598 19.744623,3878.977783 
	C17.620644,3877.068848 13.905526,3876.930664 9.990028,3875.071289 
	C9.240404,3872.436035 9.386296,3870.747803 10.805174,3868.432617 
	C14.714304,3862.166992 14.509892,3861.382324 9.583033,3860.291260 
	C7.788492,3859.893799 5.864794,3860.080078 4.000000,3860.000000 
	C4.000000,2675.916504 4.000000,1491.832886 4.886873,305.432739 
	C6.877460,302.297974 7.625391,301.230438 8.100150,298.828003 
	C9.068933,295.820770 9.955108,293.899109 12.351667,291.874634 
	C16.131487,290.694427 18.969185,290.148926 20.566389,288.442413 
	C25.873869,282.771759 24.403343,278.545471 16.637362,276.229492 
	C15.441161,275.872772 14.082584,276.060547 12.558123,274.895813 
	C12.876612,271.661804 13.436088,269.528503 15.679522,267.444336 
	C23.340113,266.923676 27.099524,263.709656 27.573454,257.725861 
	C27.981213,252.577560 28.223766,247.239136 27.259161,242.231369 
	C26.751341,239.595001 23.503647,237.486389 21.607845,233.670990 
	C23.843151,226.801529 25.963717,221.400574 29.567928,215.968903 
	C41.061516,211.997742 44.533142,207.409576 43.134781,199.147491 
	C42.484081,195.302856 41.014954,191.596725 40.016163,186.523468 
	C43.475231,179.279648 46.834942,173.340179 51.816284,167.543640 
	C58.276257,168.080292 62.083065,166.842758 64.747437,162.221283 
	C69.675270,153.673737 73.586021,145.008423 71.887161,133.569916 
	C78.237831,125.366264 84.240440,118.386032 91.839844,111.554474 
	C103.774391,113.153069 108.429840,104.928467 114.638481,99.300804 
	C119.575218,94.826035 120.429359,89.196732 119.931694,82.088234 
	C121.212883,80.112816 122.377487,79.566788 124.590576,80.647736 
	C129.032867,84.449951 132.658417,83.934135 136.032974,81.428841 
	C140.149384,78.372795 143.766830,74.493416 148.193588,72.041809 
	C154.957474,68.295891 156.467590,62.723236 155.855682,55.910789 
	C155.932251,56.005058 155.843979,55.786427 157.470825,55.855335 
	C164.277756,55.372242 169.867538,55.870770 174.550613,54.044388 
	C183.640823,50.499229 192.127548,45.439541 201.047028,41.411953 
	C206.845825,38.793488 208.379059,34.364933 208.657745,28.099072 
	C209.315857,27.555109 211.023010,27.596062 211.929871,27.503185 
	C214.068909,27.073212 215.023804,26.363182 216.919907,24.585814 
	C219.960922,23.529228 221.783417,23.167051 223.824249,24.172222 
	C225.597656,27.218138 227.509766,30.552912 228.650009,30.307114 
	C236.180359,28.683802 243.327332,26.053755 244.955032,16.034178 
	C247.344879,15.501429 248.773224,15.486075 251.800079,15.695571 
	C256.391357,16.931242 259.329132,18.171835 262.388580,18.903942 
	C268.331146,20.325970 269.672424,18.961552 271.157623,10.806902 
	C271.322998,10.837806 271.342407,11.173706 272.889984,11.435631 
	C278.992340,12.474717 283.661041,12.856870 288.073120,14.128923 
	C293.600739,15.722595 295.246246,12.910778 297.221283,8.114770 
	C300.133087,7.822889 301.811340,7.808085 304.679138,8.268619 
	C313.589935,11.488100 313.589935,11.488100 316.000000,4.000000 
	C533.416931,4.000000 750.833801,4.000000 970.971436,4.776914 
	C975.797180,6.434077 977.902344,7.314326 980.266663,9.593855 
	C982.381836,15.844664 986.266968,16.345419 990.216003,14.647449 
	C997.590088,11.476765 1003.250061,12.303750 1010.226135,17.283749 
	C1015.565979,21.095711 1023.761658,21.385668 1030.803833,22.116062 
	C1033.935059,22.440817 1037.229370,20.934519 1039.814941,23.849543 
	C1045.546387,30.311224 1052.911133,32.159328 1061.250610,32.178047 
	C1064.345215,32.184990 1069.053711,32.877079 1070.243896,34.896496 
	C1074.963867,42.904991 1084.044678,42.010273 1090.184814,46.116920 
	C1098.779907,51.865490 1107.328979,52.217228 1116.627808,51.694050 
	C1116.627808,51.694050 1118.580811,52.016647 1119.348877,54.127926 
	C1120.366211,61.441483 1123.180542,63.885990 1128.302002,63.904995 
	C1130.739136,63.914040 1133.176147,64.000252 1135.613159,64.051514 
	C1157.708984,76.394623 1174.267822,95.026154 1191.697021,115.967941 
	C1193.315918,134.280151 1193.540527,134.513184 1208.424805,135.803589 
	C1209.449707,136.691681 1210.474731,137.579773 1211.725708,141.083969 
	C1213.619995,152.102615 1213.334595,161.643402 1217.412231,168.642090 
	C1223.594727,179.253418 1232.947510,188.017380 1235.546753,200.725204 
	C1244.554932,204.998734 1243.098511,213.430176 1244.455811,221.229019 
	C1245.901611,229.536133 1248.097046,238.561462 1259.098145,240.001129 
	C1260.034302,242.778015 1260.970459,245.554932 1260.562012,250.368637 
	C1254.338745,255.211945 1251.018921,259.170715 1253.069702,264.948273 
	C1255.078125,270.605927 1259.820923,272.218201 1265.569458,270.858490 
	C1265.569458,270.858490 1265.347412,271.241333 1265.082153,271.977417 
	C1264.988281,274.037781 1265.630737,275.068054 1266.744263,275.804260 
	C1268.008911,287.669373 1270.349731,299.532257 1270.374390,311.399933 
	C1270.676392,457.045044 1270.639404,602.690857 1269.467285,750.263977 
	C1266.881104,753.180237 1265.517822,754.169006 1264.154541,755.157715 
	C1256.856567,755.423096 1249.558716,755.916443 1242.260620,755.919739 
	C1137.142456,755.966858 1032.024414,755.902466 926.906311,756.005188 
	C914.280640,756.017517 901.655701,756.851135 886.031799,756.794312 
	C880.792603,757.096802 878.552063,757.908997 876.311523,758.721191 
	C872.289246,759.397949 868.266907,760.074768 861.851685,760.608398 
	C858.274170,760.636047 857.290771,761.174316 856.508606,762.080200 
	C848.169678,764.152710 839.830750,766.225220 828.332458,768.014526 
	C802.265137,760.754761 795.439331,763.401184 784.063782,783.669434 
	C784.063782,783.669434 782.481934,784.888245 780.905579,783.719971 
	C775.994629,777.018188 771.729004,775.777100 765.928528,779.085510 
	C749.419983,788.501648 732.807556,797.735657 716.104675,807.115173 
	C716.104675,812.172852 716.104675,816.143066 716.104675,820.113342 
	C714.698792,821.500549 713.292969,822.887695 709.147705,824.276550 
	C689.914551,824.957397 689.496155,825.338135 688.329041,840.732056 
	C686.745178,842.482605 685.161377,844.233215 681.848511,845.119507 
	C677.785217,841.096313 674.967529,841.045288 671.482178,842.386108 
	C661.791504,846.114319 656.388611,854.900696 648.787109,861.066833 
	C638.740906,869.215942 633.842651,879.097168 636.130127,892.097351 
	C636.130127,892.097351 636.004883,892.007324 634.468750,892.028564 
	C625.393127,891.748535 618.719788,892.586914 615.913208,901.411682 
	C615.021240,904.216248 612.589233,906.893005 610.193604,908.779480 
	C605.666809,912.343994 603.898682,916.768127 604.015625,922.306030 
	C604.111572,926.845825 604.022583,931.389465 604.015564,935.931396 
	C604.015564,935.931396 604.024780,936.001160 602.483459,936.027283 
	C587.212769,939.811340 585.324890,944.072327 592.087891,956.037720 
	C585.873840,969.951965 579.659790,983.866272 571.158325,999.057861 
	C559.538574,1003.154236 555.919495,1011.038940 552.895569,1019.072510 
	C548.943054,1029.572876 545.785950,1040.402710 549.235291,1051.684082 
	C549.874023,1053.772827 552.818909,1055.156494 554.699341,1056.865723 
	C553.360962,1065.040161 552.022583,1073.214478 548.409424,1082.860107 
	C537.631348,1090.992432 537.947510,1094.995239 547.371826,1099.993286 
	C547.209656,1114.623047 546.906555,1129.252930 546.905701,1143.882690 
	C546.880371,1570.708862 546.875366,1997.535156 546.926575,2424.361328 
	C546.928345,2438.998535 547.541870,2453.635742 546.235229,2470.171387 
	C541.278137,2472.417725 537.175415,2472.593994 537.022827,2476.734131 
	C536.916809,2479.611084 538.288818,2483.442383 540.380371,2485.254883 
	C542.598450,2487.176758 546.447815,2487.215820 549.584717,2488.077148 
	C551.963440,2498.863525 554.342102,2509.649902 555.434082,2522.679932 
	C552.497559,2527.514160 549.185425,2530.337646 549.509277,2532.651855 
	C550.482178,2539.604492 552.632690,2546.434814 554.774353,2553.169922 
	C557.241516,2560.928467 562.696472,2564.756836 571.020630,2564.012939 
	C575.301086,2572.334717 579.581543,2580.656250 583.948914,2592.015625 
	C581.897217,2608.478516 589.594971,2618.205566 596.157898,2628.571045 
	C600.304321,2635.119873 605.732239,2636.536377 612.629395,2635.466797 
	C612.629395,2635.466797 612.192566,2636.022705 612.194458,2637.355957 
	C613.301758,2654.483643 613.680603,2654.859375 629.181519,2655.535889 
	C640.210510,2666.088867 651.239502,2676.641846 663.136108,2689.808105 
	C666.409180,2706.685303 666.837463,2707.148682 679.420532,2707.838379 
	C681.393311,2707.946777 683.390503,2707.608887 685.376404,2707.477539 
	C685.376404,2707.477539 687.148071,2707.877441 688.120972,2709.195312 
	C689.786316,2711.236328 690.612671,2711.739746 691.572937,2712.023682 
	C691.572937,2712.023682 691.945618,2711.955811 692.468750,2712.963867 
	C693.876770,2714.970947 694.978271,2715.575928 696.296448,2715.786621 
	C696.296448,2715.786621 696.023499,2715.982422 696.575317,2716.807129 
	C698.404053,2718.188721 699.680969,2718.745605 700.957886,2719.302246 
	C700.957886,2719.302246 700.436340,2719.277100 700.559570,2720.640869 
	C702.256836,2729.269043 707.756226,2727.660645 712.695251,2727.319092 
	C712.695251,2727.319092 711.958740,2727.452148 712.243530,2728.861572 
	C713.329834,2736.188965 716.962524,2739.220215 722.669556,2739.749268 
	C725.814819,2740.041016 729.011292,2739.780518 732.184631,2739.769043 
	C732.184631,2739.769043 732.057800,2740.006592 732.096924,2741.379395 
	C731.414062,2750.221191 736.867310,2752.704346 742.295227,2754.866943 
	C746.244263,2756.440430 749.842834,2755.512939 752.198242,2751.572754 
	C752.914490,2751.697510 753.630676,2751.822510 755.203308,2754.064941 
	C756.088135,2762.883057 760.130005,2767.140137 765.338806,2770.224854 
	C772.510681,2774.471436 779.981323,2778.213379 788.317566,2782.707275 
	C791.460022,2781.948486 795.863708,2780.885254 800.267456,2779.821777 
	C809.010010,2784.505127 817.752625,2789.188477 827.286377,2796.436035 
	C828.911133,2801.393555 829.133850,2805.297852 830.682007,2805.924072 
	C838.181702,2808.956543 844.092712,2813.846436 849.716125,2819.409668 
	C851.505127,2821.179688 854.057800,2823.130615 856.357788,2823.258057 
	C864.322510,2823.700684 869.760925,2827.441162 874.092651,2833.887939 
	C875.426270,2835.872559 878.211914,2837.308838 880.624146,2838.060303 
	C887.618286,2840.237793 894.095215,2842.996826 899.124939,2848.651855 
	C900.278503,2849.948975 902.941772,2851.260986 904.300903,2850.793701 
	C912.269714,2848.053711 914.260803,2854.109863 917.937195,2858.764648 
	C923.165039,2865.383789 926.525146,2865.162598 936.228149,2859.504883 
	C936.989563,2859.634277 937.750916,2859.763672 939.858154,2861.237305 
	C941.967957,2863.290771 942.862976,2863.736816 943.889160,2863.919922 
	C943.889160,2863.919922 944.030762,2863.913330 944.069336,2865.500977 
	C945.503174,2869.757568 946.270874,2873.271484 948.447754,2874.887207 
	C951.377747,2877.062500 957.057983,2876.736816 958.653137,2879.295410 
	C965.169617,2889.747803 974.913086,2888.037598 984.505066,2887.730957 
z"/>
<path fill="#164069" opacity="1.000000" stroke="none" 
	d="
M3246.806641,760.590576 
	C3242.728760,760.355103 3238.650879,760.119629 3232.148926,758.526672 
	C3227.177490,756.949707 3224.629883,756.730225 3222.082520,756.510803 
	C3205.542480,756.341431 3189.002441,756.036316 3172.462402,756.024658 
	C3064.157715,755.948120 2955.853027,755.935059 2845.209473,754.817139 
	C2841.256104,753.159302 2839.641846,752.585510 2838.027588,752.011780 
	C2837.742188,747.384521 2837.208984,742.757263 2837.207764,738.129944 
	C2837.167969,597.933960 2837.179932,457.737946 2837.195557,317.541962 
	C2837.195801,315.550934 2837.348389,313.559937 2839.444824,309.741821 
	C2847.392578,307.537048 2850.939697,303.586975 2853.973877,299.185455 
	C2857.195068,294.512360 2855.773438,288.580170 2850.327148,285.780243 
	C2847.566650,284.360992 2843.984863,284.539917 2840.774170,283.996307 
	C2841.891846,275.667328 2843.009521,267.338318 2846.274414,257.496490 
	C2852.019287,255.075409 2855.616699,254.167145 2859.345215,253.225754 
	C2859.611328,247.438080 2859.471191,242.806335 2860.140381,238.294769 
	C2860.703369,234.502365 2861.219727,230.017181 2863.501221,227.307922 
	C2868.314453,221.592911 2871.656006,215.844116 2872.947266,208.239914 
	C2873.628174,204.231232 2877.645020,200.445221 2880.872314,197.292145 
	C2885.950439,192.330444 2888.547119,186.774155 2888.082031,179.648285 
	C2887.913818,177.068527 2888.498535,174.439590 2888.870117,170.422836 
	C2897.513184,166.141815 2904.425537,158.829559 2906.992432,148.956879 
	C2908.857666,141.782883 2912.811279,137.629181 2918.862793,134.187592 
	C2924.855713,130.779495 2928.013184,124.821495 2930.437500,118.556747 
	C2932.369141,113.565521 2931.554443,112.120880 2923.995361,106.558929 
	C2927.945801,102.161278 2931.896240,97.763596 2937.812500,94.259239 
	C2944.305664,101.056435 2949.967529,100.970428 2955.585449,97.417450 
	C2958.894287,95.324974 2962.056396,92.488396 2964.271973,89.286018 
	C2969.009277,82.438698 2974.655029,77.409149 2983.039062,75.599594 
	C2985.498291,75.068810 2988.288574,73.675163 2989.847412,71.785950 
	C2996.501953,63.720551 3005.693115,60.233036 3014.886475,56.297573 
	C3020.905029,53.721142 3026.270752,49.601501 3031.880127,46.095001 
	C3034.668457,44.351940 3037.420898,40.768597 3040.062012,40.886047 
	C3050.741211,41.360992 3056.037354,32.035805 3064.556885,28.161747 
	C3069.646973,29.432146 3074.701660,30.693626 3080.615723,32.169674 
	C3088.822021,25.740625 3097.030518,19.309780 3105.264404,12.858917 
	C3122.609131,21.734465 3122.609131,21.734465 3129.080566,7.883657 
	C3132.110840,6.342916 3134.055420,5.171442 3136.000000,3.999984 
	C3357.416992,4.000000 3578.833740,4.000000 3802.414551,4.992954 
	C3805.718750,6.743204 3806.859375,7.500500 3808.055664,9.819728 
	C3808.392578,15.728690 3809.917725,18.979645 3814.809814,19.731480 
	C3820.607178,20.622398 3826.758301,20.770653 3832.073975,22.924046 
	C3844.466309,27.944082 3844.265137,28.319702 3852.976074,18.840281 
	C3854.285156,17.415617 3856.107910,16.462976 3858.358887,15.047680 
	C3859.024902,14.803364 3860.001221,15.832715 3860.020264,17.361132 
	C3859.988281,27.320307 3864.620605,33.148067 3872.037109,35.275253 
	C3887.011963,39.570362 3901.584717,46.896942 3918.583984,42.395226 
	C3920.418457,50.136955 3920.805908,58.304798 3929.405518,60.519691 
	C3941.297852,63.582729 3949.785645,72.272087 3959.873291,78.307945 
	C3964.391113,81.011345 3968.687744,84.204613 3973.460449,86.332413 
	C3979.583740,89.062187 3983.535889,86.092247 3986.449707,80.411163 
	C3987.367188,80.744820 3988.104248,82.552673 3988.068359,84.233673 
	C3988.321533,100.824249 3993.138184,113.143837 4007.597412,119.866379 
	C4012.116455,121.967514 4014.906738,125.257706 4016.080322,130.191315 
	C4018.147949,138.883255 4023.235107,145.727005 4029.652588,151.791840 
	C4032.028809,154.037369 4034.273926,156.704681 4035.712891,159.608658 
	C4040.912109,170.100662 4049.397949,173.415894 4061.417480,172.371063 
	C4063.020752,175.075470 4063.645020,177.206619 4064.165527,180.962021 
	C4063.928467,183.906311 4064.102051,185.354431 4063.613525,186.526489 
	C4058.866211,197.915222 4059.443359,207.614212 4068.718994,217.423935 
	C4073.201172,222.163940 4074.007812,230.615082 4075.848633,237.553238 
	C4077.868896,245.166489 4078.102539,253.416702 4081.094971,260.559753 
	C4083.701660,266.782654 4085.554199,272.153320 4084.424561,279.137207 
	C4083.154785,286.985352 4087.943604,291.468445 4096.000000,292.000000 
	C4096.000000,1492.083618 4096.000000,2692.167236 4095.698730,3895.602051 
	C4093.905029,3904.631592 4092.412842,3910.310059 4089.403076,3915.996094 
	C4078.774170,3915.309326 4072.909180,3918.818604 4071.321777,3928.362549 
	C4070.904297,3930.871582 4069.339111,3933.172363 4068.755859,3935.674561 
	C4066.713867,3944.437988 4069.033447,3947.701660 4080.048584,3953.436035 
	C4076.203857,3963.304932 4072.313477,3971.737549 4066.982666,3980.249023 
	C4050.524414,3986.538086 4038.160400,3995.678467 4031.166016,4010.951660 
	C4029.801025,4013.932617 4028.260010,4017.189697 4025.887207,4019.285889 
	C4018.625732,4025.698975 4015.577393,4034.210938 4013.842529,4042.914062 
	C3994.929443,4051.024902 3983.296875,4064.748291 3978.122314,4081.167480 
	C3964.949219,4087.605713 3953.795898,4093.227539 3942.494385,4098.534180 
	C3930.624268,4104.107422 3925.996582,4113.125977 3928.033691,4126.668945 
	C3925.635986,4127.858887 3923.831543,4128.308594 3920.558838,4128.161133 
	C3912.584717,4122.942871 3906.386719,4117.461426 3897.382324,4121.476074 
	C3886.464600,4126.343750 3875.368164,4130.821289 3864.539062,4135.875000 
	C3856.872559,4139.452637 3851.321533,4144.917969 3850.668457,4155.012207 
	C3845.427490,4155.940918 3841.520508,4156.229980 3836.299805,4156.414062 
	C3832.629639,4157.201660 3830.273438,4158.095215 3828.192383,4159.250977 
	C3828.467529,4159.513184 3828.082764,4160.168457 3826.621094,4159.876953 
	C3820.612549,4160.578613 3815.087158,4158.655273 3812.000000,4164.000000 
	C3812.000000,4164.000000 3810.000000,4164.000000 3808.268555,4162.998047 
	C3802.369385,4159.216797 3798.836182,4159.775391 3796.000000,4164.000000 
	C3326.583008,4164.000000 2857.166260,4164.000000 2385.874512,4164.000000 
	C2384.114258,4156.020020 2384.327637,4148.039551 2384.328125,4140.059570 
	C2384.345459,3877.249756 2384.341553,3614.440186 2384.348389,3351.630371 
	C2384.348633,3343.646973 2384.433838,3335.663330 2386.348145,3325.883057 
	C2398.775879,3328.204834 2408.361816,3328.075195 2417.849854,3320.305908 
	C2426.521484,3313.204590 2436.036133,3306.929932 2445.832031,3301.460205 
	C2456.059814,3295.749268 2464.695312,3286.834473 2477.116699,3285.227051 
	C2478.980469,3284.985840 2480.730469,3283.580566 2482.452393,3282.575684 
	C2497.828857,3273.604736 2511.631836,3261.951416 2528.567139,3255.616211 
	C2530.377930,3254.938721 2531.853760,3253.388916 2533.518555,3252.294678 
	C2540.148193,3247.937012 2546.622803,3243.311279 2553.464600,3239.315186 
	C2567.068848,3231.370117 2580.279053,3222.817871 2594.730225,3216.224854 
	C2604.892090,3211.588623 2614.041992,3204.659180 2623.444824,3198.452393 
	C2634.898438,3190.891113 2645.035645,3181.164307 2659.151123,3178.145264 
	C2662.271729,3177.477783 2665.352539,3175.526611 2667.904785,3173.483643 
	C2680.839111,3163.129639 2695.416992,3155.678467 2710.296631,3148.672852 
	C2713.261719,3147.276855 2715.864258,3145.107666 2718.624512,3143.281250 
	C2728.018311,3137.066895 2737.053467,3130.199219 2746.898926,3124.811523 
	C2756.592285,3119.507324 2764.517090,3110.714355 2776.444824,3109.510986 
	C2778.899414,3109.263184 2781.219482,3107.259766 2783.513672,3105.915039 
	C2798.297607,3097.248047 2811.372559,3085.689697 2827.879395,3079.901123 
	C2830.291016,3079.055664 2832.241699,3076.929443 2834.447754,3075.458740 
	C2843.818848,3069.212158 2852.827637,3062.290771 2862.693848,3056.956787 
	C2872.415283,3051.701416 2880.236572,3042.897705 2892.207764,3041.513672 
	C2895.808838,3041.097656 2899.127441,3037.768555 2902.460693,3035.597656 
	C2911.892578,3029.454834 2920.614990,3021.681396 2930.810059,3017.376221 
	C2946.895996,3010.583740 2961.064941,3001.240967 2975.345947,2991.518311 
	C2982.854980,2986.405762 2990.789062,2980.888916 2998.957275,2977.536865 
	C3009.610352,2973.164795 3018.853760,2967.008057 3028.455566,2961.186768 
	C3044.718262,2951.326660 3058.927490,2937.908447 3077.957031,2932.839355 
	C3079.835693,2932.339111 3081.786133,2931.338379 3083.209229,2930.031738 
	C3089.138184,2924.589844 3096.406494,2921.465576 3103.120850,2917.395508 
	C3110.448242,2912.953857 3117.406494,2908.104492 3125.515625,2905.069824 
	C3127.969238,2904.151611 3130.231445,2902.618164 3132.431641,2901.142822 
	C3142.333252,2894.502930 3151.875000,2887.261475 3162.135010,2881.239258 
	C3172.237549,2875.309326 3181.161377,2866.924072 3193.445312,2865.066406 
	C3195.313965,2864.783936 3197.047852,2863.393311 3198.769043,2862.386963 
	C3214.137695,2853.402588 3227.852295,2841.585938 3244.910645,2835.482178 
	C3246.130615,2835.045410 3247.141113,2834.044434 3248.280518,2833.358643 
	C3269.694336,2820.464111 3289.612549,2805.035889 3312.959473,2795.393799 
	C3315.951660,2794.158203 3318.252930,2791.348145 3321.126221,2789.708496 
	C3340.522217,2778.637695 3357.035889,2762.600342 3379.176025,2756.189453 
	C3382.214111,2755.309570 3384.778320,2752.700195 3387.485107,2750.783203 
	C3404.794678,2738.523193 3422.176758,2726.362305 3439.338867,2713.898926 
	C3448.406982,2707.313477 3448.927979,2703.727051 3444.446289,2689.743652 
	C3444.446289,2689.743652 3445.127930,2689.084229 3446.973145,2689.756348 
	C3454.819824,2692.496338 3460.889648,2692.914795 3465.546387,2688.001709 
	C3473.191162,2679.936035 3483.979492,2674.962891 3488.502686,2663.683105 
	C3489.817627,2660.404541 3493.933105,2658.226562 3496.823730,2655.608643 
	C3499.758301,2652.951172 3503.961914,2650.946289 3505.534180,2647.661865 
	C3512.319336,2633.487305 3527.125732,2624.053223 3529.181396,2607.021973 
	C3529.523926,2604.183105 3533.012451,2601.785645 3534.859375,2599.056641 
	C3542.668457,2587.518799 3550.792236,2575.939209 3551.790527,2561.530762 
	C3552.268555,2554.629883 3554.414307,2549.101562 3557.852783,2543.140625 
	C3570.071289,2521.958740 3576.103271,2499.335938 3570.136475,2473.861816 
	C3567.212891,2473.268311 3564.075684,2472.631348 3560.938232,2471.994385 
	C3560.801025,2470.127930 3560.663574,2468.261719 3561.474609,2464.765137 
	C3563.082275,2462.122559 3562.941406,2461.192383 3562.000000,2460.343994 
	C3561.824219,2456.954834 3561.648438,2453.565918 3562.485840,2448.022949 
	C3563.745361,2444.987305 3563.816895,2444.091797 3563.713379,2443.182617 
	C3563.421143,2437.880127 3562.873535,2432.577637 3562.873047,2427.275146 
	C3562.835938,1997.639282 3562.841553,1568.003540 3562.849121,1138.367676 
	C3562.849121,1136.369995 3562.926758,1134.372192 3563.361328,1129.910889 
	C3563.684082,1126.545898 3563.453369,1125.687500 3563.061768,1124.872192 
	C3562.486328,1121.563721 3561.910889,1118.255249 3562.052246,1112.864258 
	C3563.055664,1109.666260 3562.666992,1108.814697 3561.603271,1108.226929 
	C3561.215332,1106.413696 3560.827148,1104.600464 3562.196533,1101.331787 
	C3569.799072,1099.601929 3572.116211,1096.204834 3571.888672,1090.726440 
	C3571.540527,1082.335449 3567.488037,1074.080444 3571.339600,1065.474487 
	C3571.964355,1064.078613 3570.283691,1061.754761 3569.953613,1059.811523 
	C3568.041016,1048.561401 3564.514648,1037.996094 3557.148926,1029.864990 
	C3557.913330,1024.453857 3559.888916,1019.618896 3558.915527,1015.477234 
	C3556.816162,1006.546753 3553.705322,997.756287 3550.080811,989.306458 
	C3545.401123,978.395935 3539.883545,967.840088 3534.600586,957.194153 
	C3529.043701,945.995972 3519.849609,937.001221 3515.275146,925.165100 
	C3511.976807,916.630798 3504.608398,912.197937 3496.961670,909.137756 
	C3496.291992,904.223816 3496.943604,899.528198 3494.999268,896.498840 
	C3488.965332,887.097717 3482.497559,877.847900 3475.161865,869.443970 
	C3466.934570,860.018311 3457.611084,851.544495 3448.695557,842.726196 
	C3444.012939,838.094238 3439.825684,832.871460 3432.683594,831.465820 
	C3430.310547,830.998840 3427.704346,829.231140 3426.188721,827.289856 
	C3414.877441,812.801880 3398.267578,805.213562 3384.019775,794.576294 
	C3378.070312,790.134460 3371.321045,787.551208 3363.597168,787.934143 
	C3359.682861,788.128357 3355.731445,787.565857 3352.184082,787.367126 
	C3341.135498,769.729980 3339.393066,768.748230 3318.438232,768.001465 
	C3317.774414,767.977783 3317.106201,767.952942 3316.445068,767.998718 
	C3310.176270,768.432983 3304.710938,766.903625 3300.147705,762.227722 
	C3297.932129,759.957275 3295.068359,758.319397 3293.142578,756.877747 
	C3285.697266,758.484619 3280.419189,760.770203 3279.880127,768.223083 
	C3279.176514,768.317505 3278.472900,768.411865 3276.213623,766.693359 
	C3272.821533,760.914368 3270.985107,756.948303 3269.483398,753.705688 
	C3259.018311,748.978210 3252.965820,754.943115 3246.806641,760.590576 
z"/>
<path fill="#FCFEFD" opacity="1.000000" stroke="none" 
	d="
M255.477310,4154.059082 
	C259.490143,4154.981445 263.502960,4155.903320 270.016602,4157.459473 
	C274.922943,4158.372070 277.328430,4158.651367 279.733887,4158.930664 
	C283.517456,4159.750000 287.300964,4160.569336 292.869080,4161.940430 
	C295.102448,4162.994141 295.551239,4163.497070 296.000000,4164.000000 
	C198.955231,4164.000000 101.910469,4164.000000 4.000000,4164.000000 
	C4.000000,4065.251465 4.000000,3966.500244 4.224736,3866.882812 
	C6.143741,3867.030762 7.838009,3868.045166 9.532232,3869.059570 
	C9.386296,3870.747803 9.240404,3872.436035 9.918394,3876.691895 
	C11.428399,3883.507568 12.114524,3887.755371 12.800644,3892.002930 
	C12.843314,3894.226074 12.885990,3896.448975 13.618116,3901.242188 
	C16.376953,3915.190918 17.579624,3926.807129 23.463060,3937.137695 
	C24.549765,3941.375977 25.636484,3945.614258 27.466171,3952.222656 
	C30.363266,3959.195557 32.517391,3963.798340 34.671532,3968.401367 
	C39.251759,3985.320557 48.930969,3999.696533 59.127007,4016.618164 
	C68.932861,4030.486084 75.906845,4043.376953 87.559837,4052.535889 
	C87.559837,4052.535889 87.913567,4052.044189 88.169449,4053.489258 
	C97.986397,4065.660889 107.082092,4076.880127 119.648270,4084.425293 
	C119.648270,4084.425293 120.000267,4084.048584 120.389679,4085.401123 
	C132.116653,4095.657227 142.271973,4106.225586 156.000824,4111.761230 
	C156.000824,4111.761230 156.668686,4112.762695 158.109421,4113.859863 
	C166.173721,4118.506836 172.797302,4122.056641 179.420868,4125.606445 
	C186.575226,4129.270996 193.729630,4132.936035 203.137787,4137.700684 
	C208.728714,4139.785645 212.065842,4140.770020 215.402954,4141.754883 
	C226.320786,4145.350586 237.238647,4148.946289 250.178192,4153.132812 
	C252.199905,4153.723633 253.787216,4154.394531 253.787216,4154.394531 
	C253.787216,4154.394531 255.477310,4154.059082 255.477310,4154.059082 
z"/>
<path fill="#FDFEFC" opacity="1.000000" stroke="none" 
	d="
M223.605927,22.804874 
	C221.783417,23.167051 219.960922,23.529228 215.972992,24.536510 
	C212.468765,25.512705 211.540588,26.317522 211.023010,27.596062 
	C211.023010,27.596062 209.315857,27.555109 207.242020,28.195019 
	C188.016876,36.519550 170.575745,43.673775 155.843979,55.786427 
	C155.843979,55.786427 155.932251,56.005058 154.526428,56.168030 
	C143.340469,64.063560 133.560349,71.796120 123.780228,79.528687 
	C122.377487,79.566788 121.212883,80.112816 118.665451,82.591187 
	C108.110680,93.145676 99.176865,102.275734 90.243042,111.405792 
	C84.240440,118.386032 78.237831,125.366264 70.710037,134.312500 
	C62.854794,146.652573 56.524727,157.026642 50.194660,167.400726 
	C46.834942,173.340179 43.475231,179.279648 38.943886,187.413727 
	C34.542931,198.405426 31.313606,207.202515 28.084282,215.999603 
	C25.963717,221.400574 23.843151,226.801529 20.959080,234.968323 
	C18.128899,247.621170 16.062225,257.508179 13.995558,267.395203 
	C13.436088,269.528503 12.876612,271.661804 12.031992,276.430176 
	C11.444993,283.369293 11.143137,287.673401 10.841282,291.977478 
	C9.955108,293.899109 9.068933,295.820770 7.091081,298.634583 
	C5.332935,299.684540 4.666468,299.842255 4.000000,300.000000 
	C4.000000,201.634003 4.000000,103.267998 4.000000,4.000000 
	C96.081612,4.000000 188.166168,4.000000 282.138550,4.899740 
	C284.026398,5.799481 283.755341,7.578627 282.418091,7.765670 
	C277.834717,9.026378 274.588562,10.100042 271.342407,11.173706 
	C271.342407,11.173706 271.322998,10.837806 269.635040,10.689915 
	C262.031921,12.184922 256.116730,13.827822 250.201569,15.470720 
	C248.773224,15.486075 247.344879,15.501429 243.585754,15.918221 
	C235.371964,18.481398 229.488953,20.643137 223.605927,22.804874 
z"/>
<path fill="#FBFDFE" opacity="1.000000" stroke="none" 
	d="
M4090.920410,3915.988525 
	C4092.412842,3910.310059 4093.905029,3904.631592 4095.698730,3897.476562 
	C4096.000000,3985.040771 4096.000000,4074.081299 4096.000000,4164.000000 
	C4007.918457,4164.000000 3919.833740,4164.000000 3829.832520,4163.040527 
	C3827.915771,4162.081055 3828.082764,4160.168457 3828.082764,4160.168457 
	C3828.082764,4160.168457 3828.467529,4159.513184 3829.483398,4159.428711 
	C3832.870850,4158.402832 3835.242432,4157.460938 3837.613770,4156.519043 
	C3841.520508,4156.229980 3845.427490,4155.940918 3852.114746,4154.999023 
	C3857.416748,4153.676270 3859.949463,4153.045410 3862.458252,4152.331055 
	C3883.096924,4146.452148 3903.865479,4140.897461 3922.027100,4128.757812 
	C3923.831543,4128.308594 3925.635986,4127.858887 3929.436279,4126.291992 
	C3990.145752,4093.855957 4034.191650,4048.075195 4065.126709,3989.416260 
	C4066.637451,3986.551514 4067.343018,3983.261963 4068.423340,3980.170166 
	C4072.313477,3971.737549 4076.203857,3963.304932 4081.030518,3952.350830 
	C4084.951416,3938.549072 4087.935791,3927.268799 4090.920410,3915.988525 
z"/>
<path fill="#FDFDFD" opacity="1.000000" stroke="none" 
	d="
M3988.104248,82.552673 
	C3988.104248,82.552673 3987.367188,80.744820 3985.912354,79.323212 
	C3951.540283,50.459694 3914.478760,30.688681 3873.521240,18.225918 
	C3869.174316,16.903229 3864.515381,16.605822 3860.001221,15.832724 
	C3860.001221,15.832715 3859.024902,14.803364 3857.104004,14.069707 
	C3844.863525,11.442905 3834.543945,9.549761 3824.036865,6.750548 
	C3823.849121,5.844480 3824.000000,4.000000 3824.000000,4.000000 
	C3914.365234,4.000000 4004.730225,4.000000 4096.000000,4.000000 
	C4096.000000,88.081413 4096.000000,172.166077 4095.124023,258.040405 
	C4094.247803,259.830109 4092.490479,259.731628 4092.279785,258.151398 
	C4087.682617,229.070099 4079.105713,203.077347 4064.269043,179.337769 
	C4063.645020,177.206619 4063.020752,175.075470 4061.217285,170.982437 
	C4052.964111,157.797134 4046.608398,146.033173 4038.659668,135.467575 
	C4023.932373,115.891159 4009.103271,96.218414 3988.104248,82.552673 
z"/>
<path fill="#4FAE30" opacity="1.000000" stroke="none" 
	d="
M321.874634,4164.000000 
	C320.705688,4159.683594 322.603455,4156.402832 327.491333,4156.261719 
	C334.145447,4156.069336 340.805420,4156.009766 347.462860,4156.009277 
	C803.725098,4155.999023 1259.987305,4155.999512 1718.124756,4157.334473 
	C1720.000000,4160.446777 1720.000000,4162.223145 1720.000000,4164.000000 
	C1254.583130,4164.000000 789.166199,4164.000000 321.874634,4164.000000 
z"/>
<path fill="#164069" opacity="1.000000" stroke="none" 
	d="
M4064.165527,180.962036 
	C4079.105713,203.077347 4087.682617,229.070099 4091.972412,259.561493 
	C4093.250488,267.034546 4094.625244,271.517242 4096.000000,276.000000 
	C4096.000000,280.266693 4096.000000,284.533356 4096.000000,290.400024 
	C4087.943604,291.468445 4083.154785,286.985352 4084.424561,279.137207 
	C4085.554199,272.153320 4083.701660,266.782654 4081.094971,260.559753 
	C4078.102539,253.416702 4077.868896,245.166489 4075.848633,237.553238 
	C4074.007812,230.615082 4073.201172,222.163940 4068.718994,217.423935 
	C4059.443359,207.614212 4058.866211,197.915222 4063.613525,186.526489 
	C4064.102051,185.354431 4063.928467,183.906311 4064.165527,180.962036 
z"/>
<path fill="#9CADBE" opacity="1.000000" stroke="none" 
	d="
M3134.286133,3.999984 
	C3134.055420,5.171442 3132.110840,6.342916 3127.462158,7.735223 
	C3120.457031,7.896633 3116.155762,7.837212 3111.854736,7.777792 
	C3111.854736,7.777792 3112.384033,5.906456 3112.191895,4.953228 
	C3118.857422,4.000000 3125.714844,4.000000 3134.286133,3.999984 
z"/>
<path fill="#B7DDAB" opacity="1.000000" stroke="none" 
	d="
M980.007446,8.194576 
	C977.902344,7.314326 975.797180,6.434077 972.846069,4.776914 
	C978.857422,4.000000 985.714844,4.000000 994.286133,4.000000 
	C996.000000,4.000000 995.886047,5.834949 994.450928,7.057890 
	C988.679688,8.252079 984.343567,8.223329 980.007446,8.194576 
z"/>
<path fill="#4FAE30" opacity="1.000000" stroke="none" 
	d="
M10.805218,3868.432617 
	C7.838009,3868.045166 6.143741,3867.030762 4.224736,3865.008057 
	C4.000000,3864.000000 4.000000,3862.000000 4.000000,3861.000000 
	C5.864794,3860.080078 7.788492,3859.893799 9.583033,3860.291260 
	C14.509892,3861.382324 14.714304,3862.166992 10.805218,3868.432617 
z"/>
<path fill="#9CADBE" opacity="1.000000" stroke="none" 
	d="
M3822.333496,4.000000 
	C3824.000000,4.000000 3823.849121,5.844480 3822.437500,7.095237 
	C3816.683838,8.316550 3812.342041,8.287107 3808.000000,8.257730 
	C3806.859375,7.500500 3805.718750,6.743204 3804.289062,4.992954 
	C3809.555664,4.000000 3815.111084,4.000000 3822.333496,4.000000 
z"/>
<path fill="#4FAE30" opacity="1.000000" stroke="none" 
	d="
M314.500000,4.000000 
	C313.589935,11.488100 313.589935,11.488100 304.881439,7.330922 
	C303.894196,5.917888 304.000000,4.000000 304.000000,4.000000 
	C307.000000,4.000000 310.000000,4.000000 314.500000,4.000000 
z"/>
<path fill="#B7DDAB" opacity="1.000000" stroke="none" 
	d="
M302.333344,4.000000 
	C304.000000,4.000000 303.894196,5.917888 303.691895,6.855585 
	C301.811340,7.808085 300.133087,7.822889 295.685577,8.017245 
	C289.862640,7.990740 286.808990,7.784683 283.755341,7.578627 
	C283.755341,7.578627 284.026398,5.799481 284.013184,4.899740 
	C289.555573,4.000000 295.111115,4.000000 302.333344,4.000000 
z"/>
<path fill="#A0B1C1" opacity="1.000000" stroke="none" 
	d="
M3826.621094,4159.876953 
	C3828.082764,4160.168457 3827.915771,4162.081055 3827.958008,4163.040527 
	C3823.733154,4164.000000 3819.466553,4164.000000 3813.599854,4164.000000 
	C3815.087158,4158.655273 3820.612549,4160.578613 3826.621094,4159.876953 
z"/>
<path fill="#4FAE30" opacity="1.000000" stroke="none" 
	d="
M297.599976,4164.000000 
	C295.551239,4163.497070 295.102448,4162.994141 294.283020,4161.548828 
	C299.221436,4160.966797 304.530487,4161.327148 310.919769,4162.843750 
	C307.733307,4164.000000 303.466644,4164.000000 297.599976,4164.000000 
z"/>
<path fill="#ACB2C3" opacity="1.000000" stroke="none" 
	d="
M4096.000000,274.400024 
	C4094.625244,271.517242 4093.250488,267.034546 4092.183105,261.141724 
	C4092.490479,259.731628 4094.247803,259.830109 4095.124023,259.915039 
	C4096.000000,264.266693 4096.000000,268.533356 4096.000000,274.400024 
z"/>
<path fill="#164069" opacity="1.000000" stroke="none" 
	d="
M3797.500000,4164.000000 
	C3798.836182,4159.775391 3802.369385,4159.216797 3807.268555,4162.998047 
	C3805.000000,4164.000000 3802.000000,4164.000000 3797.500000,4164.000000 
z"/>
<path fill="#4FAE30" opacity="1.000000" stroke="none" 
	d="
M1721.000000,4164.000000 
	C1720.000000,4162.223145 1720.000000,4160.446777 1719.999268,4157.337891 
	C1719.998535,4156.005859 1721.753174,4156.000000 1722.624512,4156.000000 
	C1723.724976,4157.771484 1723.953857,4159.542969 1724.091309,4162.657227 
	C1724.000000,4164.000000 1722.000000,4164.000000 1721.000000,4164.000000 
z"/>
<path fill="#4FAE30" opacity="1.000000" stroke="none" 
	d="
M4.000000,301.000000 
	C4.666468,299.842255 5.332935,299.684540 7.008472,299.720184 
	C7.625391,301.230438 6.877460,302.297974 4.886873,303.558105 
	C4.000000,304.000000 4.000000,302.000000 4.000000,301.000000 
z"/>
<path fill="#164069" opacity="1.000000" stroke="none" 
	d="
M2836.616699,753.145752 
	C2839.641846,752.585510 2841.256104,753.159302 2843.354004,754.464783 
	C2842.270996,757.145447 2839.562012,758.977905 2839.349121,761.065125 
	C2838.675537,767.666504 2838.847900,774.363281 2838.847656,781.023193 
	C2838.833496,1156.186157 2838.916016,1531.349121 2838.782227,1906.512085 
	C2838.745605,2009.263062 2803.013184,2098.212891 2731.150635,2171.464355 
	C2675.530762,2228.158936 2607.761963,2263.303223 2529.071045,2276.688477 
	C2507.335205,2280.385498 2485.489746,2281.903564 2463.485840,2281.900391 
	C2348.871338,2281.884033 2234.256592,2281.893555 2119.642090,2281.894043 
	C2112.401123,2281.894287 2105.160400,2281.894043 2098.929443,2281.894043 
	C2097.559570,2279.968262 2097.139893,2279.445312 2096.796631,2278.876465 
	C2096.463135,2278.324219 2095.953125,2277.724854 2095.952881,2277.145996 
	C2095.791260,1775.378906 2095.665527,1273.611816 2095.540283,771.844666 
	C2095.539062,767.261597 2095.540283,762.678528 2095.540283,756.969604 
	C2100.183105,756.317566 2103.897461,755.498840 2107.640137,755.338257 
	C2113.626709,755.081299 2119.631592,755.256714 2125.628906,755.256714 
	C2354.191895,755.256042 2582.754639,755.265991 2811.317627,755.215027 
	C2819.280273,755.213257 2827.242920,754.605225 2836.616699,753.145752 
z"/>
<path fill="#4FAE30" opacity="1.000000" stroke="none" 
	d="
M1265.695312,756.106628 
	C1265.517822,754.169006 1266.881104,753.180237 1269.119141,752.105591 
	C1273.054077,753.062195 1276.060303,754.748169 1279.185547,755.008911 
	C1285.143066,755.505859 1291.168335,755.208069 1297.165527,755.208130 
	C1527.067261,755.211304 1756.969116,755.204590 1986.870850,755.237976 
	C1994.696777,755.239136 2002.522827,755.639648 2010.315552,755.853088 
	C2011.191406,759.034241 2012.143311,760.876953 2012.143555,762.719849 
	C2012.188721,1266.502197 2012.169678,1770.284546 2012.080322,2274.066895 
	C2012.080078,2275.911133 2011.041870,2277.755371 2010.206909,2280.537598 
	C2005.060791,2280.894043 1999.900146,2281.560791 1994.739380,2281.563232 
	C1874.790649,2281.621338 1754.837891,2282.223633 1634.894165,2281.446777 
	C1492.425537,2280.524414 1369.447632,2195.223145 1310.753418,2079.331543 
	C1286.935669,2032.303345 1272.748535,1982.885742 1270.876831,1930.090820 
	C1270.240479,1912.143433 1269.188965,1894.192993 1269.184082,1876.243774 
	C1269.084351,1511.066406 1269.120972,1145.889160 1269.031006,780.711853 
	C1269.029053,772.826294 1267.860352,764.940979 1265.695312,756.106628 
z"/>
<path fill="#164069" opacity="1.000000" stroke="none" 
	d="
M3443.310547,2690.225098 
	C3448.927979,2703.727051 3448.406982,2707.313477 3439.338867,2713.898926 
	C3422.176758,2726.362305 3404.794678,2738.523193 3387.485107,2750.783203 
	C3384.778320,2752.700195 3382.214111,2755.309570 3379.176025,2756.189453 
	C3357.035889,2762.600342 3340.522217,2778.637695 3321.126221,2789.708496 
	C3318.252930,2791.348145 3315.951660,2794.158203 3312.959473,2795.393799 
	C3289.612549,2805.035889 3269.694336,2820.464111 3248.280518,2833.358643 
	C3247.141113,2834.044434 3246.130615,2835.045410 3244.910645,2835.482178 
	C3227.852295,2841.585938 3214.137695,2853.402588 3198.769043,2862.386963 
	C3197.047852,2863.393311 3195.313965,2864.783936 3193.445312,2865.066406 
	C3181.161377,2866.924072 3172.237549,2875.309326 3162.135010,2881.239258 
	C3151.875000,2887.261475 3142.333252,2894.502930 3132.431641,2901.142822 
	C3130.231445,2902.618164 3127.969238,2904.151611 3125.515625,2905.069824 
	C3117.406494,2908.104492 3110.448242,2912.953857 3103.120850,2917.395508 
	C3096.406494,2921.465576 3089.138184,2924.589844 3083.209229,2930.031738 
	C3081.786133,2931.338379 3079.835693,2932.339111 3077.957031,2932.839355 
	C3058.927490,2937.908447 3044.718262,2951.326660 3028.455566,2961.186768 
	C3018.853760,2967.008057 3009.610352,2973.164795 2998.957275,2977.536865 
	C2990.789062,2980.888916 2982.854980,2986.405762 2975.345947,2991.518311 
	C2961.064941,3001.240967 2946.895996,3010.583740 2930.810059,3017.376221 
	C2920.614990,3021.681396 2911.892578,3029.454834 2902.460693,3035.597656 
	C2899.127441,3037.768555 2895.808838,3041.097656 2892.207764,3041.513672 
	C2880.236572,3042.897705 2872.415283,3051.701416 2862.693848,3056.956787 
	C2852.827637,3062.290771 2843.818848,3069.212158 2834.447754,3075.458740 
	C2832.241699,3076.929443 2830.291016,3079.055664 2827.879395,3079.901123 
	C2811.372559,3085.689697 2798.297607,3097.248047 2783.513672,3105.915039 
	C2781.219482,3107.259766 2778.899414,3109.263184 2776.444824,3109.510986 
	C2764.517090,3110.714355 2756.592285,3119.507324 2746.898926,3124.811523 
	C2737.053467,3130.199219 2728.018311,3137.066895 2718.624512,3143.281250 
	C2715.864258,3145.107666 2713.261719,3147.276855 2710.296631,3148.672852 
	C2695.416992,3155.678467 2680.839111,3163.129639 2667.904785,3173.483643 
	C2665.352539,3175.526611 2662.271729,3177.477783 2659.151123,3178.145264 
	C2645.035645,3181.164307 2634.898438,3190.891113 2623.444824,3198.452393 
	C2614.041992,3204.659180 2604.892090,3211.588623 2594.730225,3216.224854 
	C2580.279053,3222.817871 2567.068848,3231.370117 2553.464600,3239.315186 
	C2546.622803,3243.311279 2540.148193,3247.937012 2533.518555,3252.294678 
	C2531.853760,3253.388916 2530.377930,3254.938721 2528.567139,3255.616211 
	C2511.631836,3261.951416 2497.828857,3273.604736 2482.452393,3282.575684 
	C2480.730469,3283.580566 2478.980469,3284.985840 2477.116699,3285.227051 
	C2464.695312,3286.834473 2456.059814,3295.749268 2445.832031,3301.460205 
	C2436.036133,3306.929932 2426.521484,3313.204590 2417.849854,3320.305908 
	C2408.361816,3328.075195 2398.775879,3328.204834 2386.770996,3324.053711 
	C2385.458740,3317.085693 2391.833252,3316.109863 2396.007324,3313.619629 
	C2426.873291,3295.206543 2457.954346,3277.153809 2488.956055,3258.968262 
	C2775.988770,3090.593506 3062.980225,2922.148193 3350.105713,2753.932129 
	C3382.356201,2735.038086 3413.461670,2714.661377 3443.310547,2690.225098 
z"/>
<path fill="#164069" opacity="1.000000" stroke="none" 
	d="
M3281.010986,769.143921 
	C3280.419189,760.770203 3285.697266,758.484619 3293.142578,756.877747 
	C3295.068359,758.319397 3297.932129,759.957275 3300.147705,762.227722 
	C3304.710938,766.903625 3310.176270,768.432983 3316.445068,767.998718 
	C3317.106201,767.952942 3317.774414,767.977783 3318.438232,768.001465 
	C3339.393066,768.748230 3341.135498,769.729980 3352.184082,787.367126 
	C3355.731445,787.565857 3359.682861,788.128357 3363.597168,787.934143 
	C3371.321045,787.551208 3378.070312,790.134460 3384.019775,794.576294 
	C3398.267578,805.213562 3414.877441,812.801880 3426.188721,827.289856 
	C3427.704346,829.231140 3430.310547,830.998840 3432.683594,831.465820 
	C3439.825684,832.871460 3444.012939,838.094238 3448.695557,842.726196 
	C3457.611084,851.544495 3466.934570,860.018311 3475.161865,869.443970 
	C3482.497559,877.847900 3488.965332,887.097717 3494.999268,896.498840 
	C3496.943604,899.528198 3496.291992,904.223816 3496.961670,909.137756 
	C3504.608398,912.197937 3511.976807,916.630798 3515.275146,925.165100 
	C3519.849609,937.001221 3529.043701,945.995972 3534.600586,957.194153 
	C3539.883545,967.840088 3545.401123,978.395935 3550.080811,989.306458 
	C3553.705322,997.756287 3556.816162,1006.546753 3558.915527,1015.477234 
	C3559.888916,1019.618896 3557.913330,1024.453857 3557.148926,1029.864990 
	C3564.514648,1037.996094 3568.041016,1048.561401 3569.953613,1059.811523 
	C3570.283691,1061.754761 3571.964355,1064.078613 3571.339600,1065.474487 
	C3567.488037,1074.080444 3571.540527,1082.335449 3571.888672,1090.726440 
	C3572.116211,1096.204834 3569.799072,1099.601929 3562.455322,1099.941406 
	C3555.129639,1063.252686 3547.570801,1026.967651 3532.429932,992.680176 
	C3483.495850,881.866150 3401.719727,807.678101 3285.876465,771.437805 
	C3284.612061,771.042297 3283.385986,770.525146 3281.010986,769.143921 
z"/>
<path fill="#164069" opacity="1.000000" stroke="none" 
	d="
M3560.412598,2473.568848 
	C3564.075684,2472.631348 3567.212891,2473.268311 3570.136475,2473.861816 
	C3576.103271,2499.335938 3570.071289,2521.958740 3557.852783,2543.140625 
	C3554.414307,2549.101562 3552.268555,2554.629883 3551.790527,2561.530762 
	C3550.792236,2575.939209 3542.668457,2587.518799 3534.859375,2599.056641 
	C3533.012451,2601.785645 3529.523926,2604.183105 3529.181396,2607.021973 
	C3527.125732,2624.053223 3512.319336,2633.487305 3505.534180,2647.661865 
	C3503.961914,2650.946289 3499.758301,2652.951172 3496.823730,2655.608643 
	C3493.933105,2658.226562 3489.817627,2660.404541 3488.502686,2663.683105 
	C3483.979492,2674.962891 3473.191162,2679.936035 3465.546387,2688.001709 
	C3460.889648,2692.914795 3454.819824,2692.496338 3447.341797,2689.458008 
	C3451.412109,2682.809814 3456.905273,2677.077881 3462.515869,2671.463379 
	C3512.845459,2621.095215 3546.170166,2561.822021 3557.218994,2490.857422 
	C3558.036133,2485.608154 3558.994629,2480.381104 3560.412598,2473.568848 
z"/>
<path fill="#164069" opacity="1.000000" stroke="none" 
	d="
M3110.241699,7.943412 
	C3116.155762,7.837212 3120.457031,7.896633 3126.376465,8.104488 
	C3122.609131,21.734465 3122.609131,21.734465 3105.264404,12.858917 
	C3097.030518,19.309780 3088.822021,25.740625 3080.615723,32.169674 
	C3074.701660,30.693626 3069.646973,29.432146 3064.556885,28.161747 
	C3056.037354,32.035805 3050.741211,41.360992 3040.062012,40.886047 
	C3037.420898,40.768597 3034.668457,44.351940 3031.880127,46.095001 
	C3026.270752,49.601501 3020.905029,53.721142 3014.886475,56.297573 
	C3005.693115,60.233036 2996.501953,63.720551 2989.847412,71.785950 
	C2988.288574,73.675163 2985.498291,75.068810 2983.039062,75.599594 
	C2974.655029,77.409149 2969.009277,82.438698 2964.271973,89.286018 
	C2962.056396,92.488396 2958.894287,95.324974 2955.585449,97.417450 
	C2949.967529,100.970428 2944.305664,101.056435 2939.141113,93.587776 
	C2972.263672,57.715496 3012.998535,34.825619 3058.412354,20.184475 
	C3074.750732,14.917084 3091.867432,12.063964 3110.241699,7.943412 
z"/>
<path fill="#164069" opacity="1.000000" stroke="none" 
	d="
M2922.927246,107.099037 
	C2931.554443,112.120880 2932.369141,113.565521 2930.437500,118.556747 
	C2928.013184,124.821495 2924.855713,130.779495 2918.862793,134.187592 
	C2912.811279,137.629181 2908.857666,141.782883 2906.992432,148.956879 
	C2904.425537,158.829559 2897.513184,166.141815 2888.870117,170.422836 
	C2888.498535,174.439590 2887.913818,177.068527 2888.082031,179.648285 
	C2888.547119,186.774155 2885.950439,192.330444 2880.872314,197.292145 
	C2877.645020,200.445221 2873.628174,204.231232 2872.947266,208.239914 
	C2871.656006,215.844116 2868.314453,221.592911 2863.501221,227.307922 
	C2861.219727,230.017181 2860.703369,234.502365 2860.140381,238.294769 
	C2859.471191,242.806335 2859.611328,247.438080 2859.345215,253.225754 
	C2855.616699,254.167145 2852.019287,255.075409 2846.858887,256.002014 
	C2856.398438,199.120071 2883.042969,150.239334 2922.927246,107.099037 
z"/>
<path fill="#4FAE30" opacity="1.000000" stroke="none" 
	d="
M1235.451172,3034.401611 
	C1226.394897,3041.213623 1223.084229,3041.470947 1217.845703,3034.591553 
	C1214.113892,3029.690918 1211.854858,3024.254639 1203.927612,3026.656494 
	C1202.203125,3027.178711 1199.121216,3024.796631 1197.294556,3023.081543 
	C1193.344116,3019.372559 1189.152344,3016.631592 1183.747070,3015.275635 
	C1178.593018,3013.982422 1174.026367,3011.235107 1171.093140,3006.321533 
	C1168.510498,3001.995605 1164.369385,3000.229248 1159.409912,2999.895996 
	C1157.478149,2999.766113 1155.109985,2999.500000 1153.761841,2998.340820 
	C1140.522339,2986.956299 1123.342529,2980.591064 1112.638672,2964.606445 
	C1115.698608,2964.398193 1118.918091,2965.294922 1121.706543,2966.927490 
	C1159.396973,2988.991699 1197.027710,3011.158203 1235.451172,3034.401611 
z"/>
<path fill="#4FAE30" opacity="1.000000" stroke="none" 
	d="
M935.450439,2858.402344 
	C926.525146,2865.162598 923.165039,2865.383789 917.937195,2858.764648 
	C914.260803,2854.109863 912.269714,2848.053711 904.300903,2850.793701 
	C902.941772,2851.260986 900.278503,2849.948975 899.124939,2848.651855 
	C894.095215,2842.996826 887.618286,2840.237793 880.624146,2838.060303 
	C878.211914,2837.308838 875.426270,2835.872559 874.092651,2833.887939 
	C869.760925,2827.441162 864.322510,2823.700684 856.357788,2823.258057 
	C854.057800,2823.130615 851.505127,2821.179688 849.716125,2819.409668 
	C844.092712,2813.846436 838.181702,2808.956543 830.682007,2805.924072 
	C829.133850,2805.297852 828.911133,2801.393555 828.071350,2797.527832 
	C831.652527,2797.660156 835.426758,2798.945312 838.798157,2800.918701 
	C870.795349,2819.645752 902.724182,2838.489502 935.450439,2858.402344 
z"/>
<path fill="#4FAE30" opacity="1.000000" stroke="none" 
	d="
M980.266663,9.593855 
	C984.343567,8.223329 988.679688,8.252079 994.613525,7.962633 
	C1038.635132,13.560488 1078.296265,27.344889 1115.845215,50.533989 
	C1107.328979,52.217228 1098.779907,51.865490 1090.184814,46.116920 
	C1084.044678,42.010273 1074.963867,42.904991 1070.243896,34.896496 
	C1069.053711,32.877079 1064.345215,32.184990 1061.250610,32.178047 
	C1052.911133,32.159328 1045.546387,30.311224 1039.814941,23.849543 
	C1037.229370,20.934519 1033.935059,22.440817 1030.803833,22.116062 
	C1023.761658,21.385668 1015.565979,21.095711 1010.226135,17.283749 
	C1003.250061,12.303750 997.590088,11.476765 990.216003,14.647449 
	C986.266968,16.345419 982.381836,15.844664 980.266663,9.593855 
z"/>
<path fill="#4FAE30" opacity="1.000000" stroke="none" 
	d="
M1259.148438,238.515137 
	C1248.097046,238.561462 1245.901611,229.536133 1244.455811,221.229019 
	C1243.098511,213.430176 1244.554932,204.998734 1235.546753,200.725204 
	C1232.947510,188.017380 1223.594727,179.253418 1217.412231,168.642090 
	C1213.334595,161.643402 1213.619995,152.102615 1211.907959,142.119446 
	C1230.571777,162.309082 1241.580200,188.265518 1251.877441,214.565109 
	C1254.743896,221.886337 1256.781250,229.532211 1259.148438,238.515137 
z"/>
<path fill="#4FAE30" opacity="1.000000" stroke="none" 
	d="
M1515.402832,3198.646484 
	C1508.378540,3199.715088 1501.438599,3199.641846 1493.786865,3194.900391 
	C1485.178955,3189.566650 1473.661011,3188.989258 1467.777832,3178.790039 
	C1467.211792,3177.808838 1465.569458,3176.875000 1464.432983,3176.882324 
	C1448.779297,3176.981689 1442.611206,3160.611572 1429.301758,3156.570557 
	C1428.411743,3156.300049 1428.463867,3152.926758 1428.070801,3149.523926 
	C1433.852661,3150.959473 1439.810303,3153.577393 1445.400635,3156.827148 
	C1468.547241,3170.283447 1491.582764,3183.930420 1515.402832,3198.646484 
z"/>
<path fill="#4FAE30" opacity="1.000000" stroke="none" 
	d="
M717.456909,819.799805 
	C716.104675,816.143066 716.104675,812.172852 716.104675,807.115173 
	C732.807556,797.735657 749.419983,788.501648 765.928528,779.085510 
	C771.729004,775.777100 775.994629,777.018188 779.915161,783.846680 
	C759.937073,796.589844 739.373108,808.038025 717.456909,819.799805 
z"/>
<path fill="#4FAE30" opacity="1.000000" stroke="none" 
	d="
M637.352051,891.555969 
	C633.842651,879.097168 638.740906,869.215942 648.787109,861.066833 
	C656.388611,854.900696 661.791504,846.114319 671.482178,842.386108 
	C674.967529,841.045288 677.785217,841.096313 680.742676,845.595581 
	C667.101990,861.628784 652.838013,876.321716 637.352051,891.555969 
z"/>
<path fill="#4FAE30" opacity="1.000000" stroke="none" 
	d="
M555.260071,1055.566284 
	C552.818909,1055.156494 549.874023,1053.772827 549.235291,1051.684082 
	C545.785950,1040.402710 548.943054,1029.572876 552.895569,1019.072510 
	C555.919495,1011.038940 559.538574,1003.154236 570.270752,1000.168823 
	C566.387329,1018.090515 561.104065,1036.178711 555.260071,1055.566284 
z"/>
<path fill="#4FAE30" opacity="1.000000" stroke="none" 
	d="
M605.100098,935.157959 
	C604.022583,931.389465 604.111572,926.845825 604.015625,922.306030 
	C603.898682,916.768127 605.666809,912.343994 610.193604,908.779480 
	C612.589233,906.893005 615.021240,904.216248 615.913208,901.411682 
	C618.719788,892.586914 625.393127,891.748535 634.515869,892.090027 
	C626.127686,906.215027 616.156189,920.299744 605.100098,935.157959 
z"/>
<path fill="#4FAE30" opacity="1.000000" stroke="none" 
	d="
M570.913330,2562.582520 
	C562.696472,2564.756836 557.241516,2560.928467 554.774353,2553.169922 
	C552.632690,2546.434814 550.482178,2539.604492 549.509277,2532.651855 
	C549.185425,2530.337646 552.497559,2527.514160 555.443665,2524.312256 
	C561.428528,2536.184814 566.117310,2548.668457 570.913330,2562.582520 
z"/>
<path fill="#4FAE30" opacity="1.000000" stroke="none" 
	d="
M799.493652,2778.696289 
	C795.863708,2780.885254 791.460022,2781.948486 788.317566,2782.707275 
	C779.981323,2778.213379 772.510681,2774.471436 765.338806,2770.224854 
	C760.130005,2767.140137 756.088135,2762.883057 756.026428,2754.780273 
	C770.235474,2761.442383 784.477722,2769.506592 799.493652,2778.696289 
z"/>
<path fill="#4FAE30" opacity="1.000000" stroke="none" 
	d="
M1679.307373,3294.721191 
	C1670.365723,3296.079346 1660.593506,3297.460938 1654.196289,3286.875000 
	C1652.798950,3284.562988 1647.220093,3284.402832 1643.482910,3283.958008 
	C1635.580322,3283.017090 1632.120483,3278.589844 1632.176758,3269.371582 
	C1647.668091,3276.397705 1663.113159,3284.994873 1679.307373,3294.721191 
z"/>
<path fill="#4FAE30" opacity="1.000000" stroke="none" 
	d="
M1079.321533,2942.713867 
	C1070.376709,2944.081543 1060.605469,2945.461914 1054.201904,2934.879395 
	C1052.802002,2932.565674 1047.224487,2932.403076 1043.486572,2931.958496 
	C1035.581299,2931.018311 1032.120239,2926.591064 1032.177246,2917.370605 
	C1047.673462,2924.394043 1063.123047,2932.988525 1079.321533,2942.713867 
z"/>
<path fill="#4FAE30" opacity="1.000000" stroke="none" 
	d="
M612.246094,2634.158203 
	C605.732239,2636.536377 600.304321,2635.119873 596.157898,2628.571045 
	C589.594971,2618.205566 581.897217,2608.478516 584.066772,2593.418213 
	C593.352783,2605.471924 602.607849,2619.160889 612.246094,2634.158203 
z"/>
<path fill="#4FAE30" opacity="1.000000" stroke="none" 
	d="
M1379.309204,3118.718262 
	C1370.365234,3120.082031 1360.594971,3121.458740 1354.196533,3110.875000 
	C1352.798706,3108.562744 1347.219971,3108.402832 1343.482666,3107.957764 
	C1335.579590,3107.016846 1332.120117,3102.588867 1332.177368,3093.370361 
	C1347.669678,3100.395508 1363.115356,3108.991943 1379.309204,3118.718262 
z"/>
<path fill="#4FAE30" opacity="1.000000" stroke="none" 
	d="
M785.533691,783.651123 
	C795.439331,763.401184 802.265137,760.754761 826.730591,767.957642 
	C814.526672,773.333679 800.765198,778.483215 785.533691,783.651123 
z"/>
<path fill="#4FAE30" opacity="1.000000" stroke="none" 
	d="
M1331.410645,3090.650391 
	C1322.198364,3092.442139 1312.476318,3093.083252 1306.021851,3082.690186 
	C1304.727539,3080.606201 1300.177612,3080.410156 1297.058594,3079.621826 
	C1291.094238,3078.113770 1288.350708,3074.207031 1288.035645,3066.820068 
	C1302.213013,3073.420410 1316.434326,3081.471436 1331.410645,3090.650391 
z"/>
<path fill="#4FAE30" opacity="1.000000" stroke="none" 
	d="
M1583.680420,3238.643311 
	C1574.915405,3240.037842 1565.174438,3241.749512 1558.658325,3231.300537 
	C1557.063232,3228.742432 1551.387085,3229.066650 1548.456787,3226.893311 
	C1546.279297,3225.278320 1545.506348,3221.769287 1544.097168,3217.583008 
	C1557.009766,3223.226807 1569.932861,3230.391602 1583.680420,3238.643311 
z"/>
<path fill="#4FAE30" opacity="1.000000" stroke="none" 
	d="
M1283.680542,3062.643066 
	C1274.915161,3064.037842 1265.173706,3065.749268 1258.657227,3055.300781 
	C1257.061768,3052.742432 1251.386108,3053.065918 1248.455811,3050.892334 
	C1246.278320,3049.277344 1245.506470,3045.767578 1244.098877,3041.580566 
	C1257.011597,3047.224854 1269.933960,3054.390381 1283.680542,3062.643066 
z"/>
<path fill="#164069" opacity="1.000000" stroke="none" 
	d="
M2840.299805,285.469177 
	C2843.984863,284.539917 2847.566650,284.360992 2850.327148,285.780243 
	C2855.773438,288.580170 2857.195068,294.512360 2853.973877,299.185455 
	C2850.939697,303.586975 2847.392578,307.537048 2840.151367,308.002167 
	C2839.170166,301.040436 2839.497803,293.991241 2840.299805,285.469177 
z"/>
<path fill="#4FAE30" opacity="1.000000" stroke="none" 
	d="
M983.670715,2886.641602 
	C974.913086,2888.037598 965.169617,2889.747803 958.653137,2879.295410 
	C957.057983,2876.736816 951.377747,2877.062500 948.447754,2874.887207 
	C946.270874,2873.271484 945.503174,2869.757568 944.096680,2865.566406 
	C957.002441,2871.213623 969.919373,2878.383057 983.670715,2886.641602 
z"/>
<path fill="#164069" opacity="1.000000" stroke="none" 
	d="
M3248.013184,761.519653 
	C3252.965820,754.943115 3259.018311,748.978210 3269.483398,753.705688 
	C3270.985107,756.948303 3272.821533,760.914368 3275.278564,766.183472 
	C3267.005859,765.807190 3258.112793,764.127930 3248.013184,761.519653 
z"/>
<path fill="#4FAE30" opacity="1.000000" stroke="none" 
	d="
M684.722839,2706.323975 
	C683.390503,2707.608887 681.393311,2707.946777 679.420532,2707.838379 
	C666.837463,2707.148682 666.409180,2706.685303 663.992432,2690.895996 
	C670.677185,2694.637207 677.373230,2699.903809 684.722839,2706.323975 
z"/>
<path fill="#4FAE30" opacity="1.000000" stroke="none" 
	d="
M1535.486816,3210.431152 
	C1533.207397,3216.288330 1528.656616,3216.566895 1523.939941,3215.221680 
	C1517.857666,3213.487305 1516.045166,3208.698730 1516.169922,3201.349121 
	C1522.393799,3202.996582 1528.569580,3206.176025 1535.486816,3210.431152 
z"/>
<path fill="#4FAE30" opacity="1.000000" stroke="none" 
	d="
M628.747620,2654.273438 
	C613.680603,2654.859375 613.301758,2654.483643 612.361572,2637.044922 
	C617.789062,2641.270508 623.051331,2647.140869 628.747620,2654.273438 
z"/>
<path fill="#4FAE30" opacity="1.000000" stroke="none" 
	d="
M1265.703979,269.432892 
	C1259.820923,272.218201 1255.078125,270.605927 1253.069702,264.948273 
	C1251.018921,259.170715 1254.338745,255.211945 1260.670288,251.835831 
	C1263.361572,256.846588 1264.600098,262.426941 1265.703979,269.432892 
z"/>
<path fill="#4FAE30" opacity="1.000000" stroke="none" 
	d="
M751.483459,2750.476562 
	C749.842834,2755.512939 746.244263,2756.440430 742.295227,2754.866943 
	C736.867310,2752.704346 731.414062,2750.221191 732.183655,2741.268555 
	C738.410339,2742.983398 744.589478,2746.181885 751.483459,2750.476562 
z"/>
<path fill="#4FAE30" opacity="1.000000" stroke="none" 
	d="
M593.123901,955.248291 
	C585.324890,944.072327 587.212769,939.811340 602.451538,936.041199 
	C600.693970,942.172302 597.426880,948.315552 593.123901,955.248291 
z"/>
<path fill="#4FAE30" opacity="1.000000" stroke="none" 
	d="
M1031.455811,2914.682129 
	C1028.300903,2915.825928 1024.433960,2915.973389 1020.570984,2915.901611 
	C1012.955750,2915.760254 1008.525696,2912.098389 1008.037842,2902.744629 
	C1015.577026,2905.369385 1023.161316,2909.477783 1031.455811,2914.682129 
z"/>
<path fill="#4FAE30" opacity="1.000000" stroke="none" 
	d="
M1208.112061,134.513245 
	C1193.540527,134.513184 1193.315918,134.280151 1192.129883,117.232483 
	C1197.388794,121.493546 1202.594116,127.358215 1208.112061,134.513245 
z"/>
<path fill="#4FAE30" opacity="1.000000" stroke="none" 
	d="
M549.862793,2486.741211 
	C546.447815,2487.215820 542.598450,2487.176758 540.380371,2485.254883 
	C538.288818,2483.442383 536.916809,2479.611084 537.022827,2476.734131 
	C537.175415,2472.593994 541.278137,2472.417725 546.009277,2472.034180 
	C548.325867,2476.467529 549.233398,2480.936279 549.862793,2486.741211 
z"/>
<path fill="#4FAE30" opacity="1.000000" stroke="none" 
	d="
M689.608337,840.321289 
	C689.496155,825.338135 689.914551,824.957397 708.133972,824.425171 
	C703.535583,829.684937 697.211609,834.797791 689.608337,840.321289 
z"/>
<path fill="#4FAE30" opacity="1.000000" stroke="none" 
	d="
M1603.637695,3250.340820 
	C1595.093262,3258.064453 1591.869385,3256.627197 1588.026611,3242.758789 
	C1592.990601,3244.009277 1597.989990,3246.653564 1603.637695,3250.340820 
z"/>
<path fill="#4FAE30" opacity="1.000000" stroke="none" 
	d="
M1099.440430,2954.688965 
	C1096.205566,2955.812744 1092.267090,2955.882324 1088.329834,2955.842285 
	C1082.559814,2955.783936 1080.215088,2952.461914 1080.154663,2945.478516 
	C1086.354736,2947.128906 1092.546143,2950.357422 1099.440430,2954.688965 
z"/>
<path fill="#4FAE30" opacity="1.000000" stroke="none" 
	d="
M1399.534668,3130.727539 
	C1396.312256,3131.833984 1392.358643,3131.884766 1388.406006,3131.849854 
	C1382.630249,3131.799072 1380.221191,3128.521484 1380.153564,3121.493164 
	C1386.375244,3123.152100 1392.589600,3126.392822 1399.534668,3130.727539 
z"/>
<path fill="#4FAE30" opacity="1.000000" stroke="none" 
	d="
M1631.455078,3266.679688 
	C1628.234131,3267.805664 1624.302002,3267.876709 1620.370850,3267.847900 
	C1614.629028,3267.805664 1612.229492,3264.538086 1612.128540,3257.554688 
	C1618.331421,3259.180664 1624.537842,3262.380371 1631.455078,3266.679688 
z"/>
<path fill="#4FAE30" opacity="1.000000" stroke="none" 
	d="
M731.512451,2738.643066 
	C729.011292,2739.780518 725.814819,2740.041016 722.669556,2739.749268 
	C716.962524,2739.220215 713.329834,2736.188965 712.596680,2728.735352 
	C718.723511,2730.638916 724.781921,2734.078125 731.512451,2738.643066 
z"/>
<path fill="#4FAE30" opacity="1.000000" stroke="none" 
	d="
M1699.534302,3306.727539 
	C1696.310059,3307.835205 1692.357056,3307.884521 1688.404785,3307.849609 
	C1682.629639,3307.798340 1680.220825,3304.521484 1680.152466,3297.494141 
	C1686.374756,3299.152588 1692.590210,3302.392334 1699.534302,3306.727539 
z"/>
<path fill="#4FAE30" opacity="1.000000" stroke="none" 
	d="
M547.833557,1098.440186 
	C537.947510,1094.995239 537.631348,1090.992432 547.590942,1084.163574 
	C548.796509,1088.292725 548.545898,1092.589966 547.833557,1098.440186 
z"/>
<path fill="#4FAE30" opacity="1.000000" stroke="none" 
	d="
M1004.041992,2898.599609 
	C1001.536255,2899.705811 998.339783,2899.898682 995.157715,2899.760010 
	C990.515076,2899.558105 988.512756,2896.651367 988.066833,2890.841797 
	C993.115112,2892.092529 998.236389,2894.815430 1004.041992,2898.599609 
z"/>
<path fill="#4FAE30" opacity="1.000000" stroke="none" 
	d="
M1135.025635,62.994186 
	C1133.176147,64.000252 1130.739136,63.914040 1128.302002,63.904995 
	C1123.180542,63.885990 1120.366211,61.441483 1120.054443,54.821762 
	C1124.807495,56.248493 1129.622803,59.092674 1135.025635,62.994186 
z"/>
<path fill="#4FAE30" opacity="1.000000" stroke="none" 
	d="
M712.119141,2726.212402 
	C707.756226,2727.660645 702.256836,2729.269043 700.777283,2720.496582 
	C704.428772,2721.027588 707.985901,2723.066895 712.119141,2726.212402 
z"/>
<path fill="#164069" opacity="1.000000" stroke="none" 
	d="
M3223.041504,757.413818 
	C3224.629883,756.730225 3227.177490,756.949707 3230.706543,757.993286 
	C3229.125488,758.650513 3226.562744,758.483643 3223.041504,757.413818 
z"/>
<path fill="#4FAE30" opacity="1.000000" stroke="none" 
	d="
M877.540527,758.928223 
	C878.552063,757.908997 880.792603,757.096802 884.284424,756.402527 
	C883.280396,757.391968 881.024963,758.263550 877.540527,758.928223 
z"/>
<path fill="#4FAE30" opacity="1.000000" stroke="none" 
	d="
M1107.142578,2959.025391 
	C1105.609741,2959.271240 1103.460205,2958.549072 1100.735840,2956.814209 
	C1102.282471,2956.553223 1104.404175,2957.304932 1107.142578,2959.025391 
z"/>
<path fill="#164069" opacity="1.000000" stroke="none" 
	d="
M3561.571777,2461.159668 
	C3562.941406,2461.192383 3563.082275,2462.122559 3561.990723,2463.452393 
	C3561.559082,2463.769775 3561.143555,2461.975098 3561.571777,2461.159668 
z"/>
<path fill="#4FAE30" opacity="1.000000" stroke="none" 
	d="
M857.393921,762.251526 
	C857.290771,761.174316 858.274170,760.636047 860.320801,760.457397 
	C860.546143,761.595032 859.578308,762.252808 857.393921,762.251526 
z"/>
<path fill="#164069" opacity="1.000000" stroke="none" 
	d="
M3561.417480,1109.119019 
	C3562.666992,1108.814697 3563.055664,1109.666260 3562.447510,1111.190430 
	C3562.125732,1111.599243 3561.231445,1110.011108 3561.417480,1109.119019 
z"/>
<path fill="#164069" opacity="1.000000" stroke="none" 
	d="
M3562.643555,1125.532715 
	C3563.453369,1125.687500 3563.684082,1126.545898 3563.740234,1128.119141 
	C3562.699951,1128.228760 3562.199463,1127.362915 3562.643555,1125.532715 
z"/>
<path fill="#164069" opacity="1.000000" stroke="none" 
	d="
M3563.125488,2443.716553 
	C3563.816895,2444.091797 3563.745361,2444.987305 3563.245605,2446.494141 
	C3562.014404,2446.294189 3561.862793,2445.337891 3563.125488,2443.716553 
z"/>
<path fill="#4FAE30" opacity="1.000000" stroke="none" 
	d="
M1611.608398,3255.161133 
	C1610.932861,3255.736328 1610.027222,3255.312988 1608.786865,3254.019043 
	C1609.506714,3253.163574 1610.482178,3253.501709 1611.608398,3255.161133 
z"/>
<path fill="#4FAE30" opacity="1.000000" stroke="none" 
	d="
M1267.005127,274.850525 
	C1265.630737,275.068054 1264.988281,274.037781 1264.980469,271.780884 
	C1266.592285,271.348572 1267.299683,272.364716 1267.005127,274.850525 
z"/>
<path fill="#4FAE30" opacity="1.000000" stroke="none" 
	d="
M691.309937,2711.272461 
	C690.612671,2711.739746 689.786316,2711.236328 688.683899,2709.907959 
	C689.459290,2709.114990 690.383667,2709.520996 691.309937,2711.272461 
z"/>
<path fill="#4FAE30" opacity="1.000000" stroke="none" 
	d="
M695.937134,2714.843750 
	C694.978271,2715.575928 693.876770,2714.970947 692.504150,2713.149902 
	C693.203552,2712.852295 694.390625,2713.376709 695.937134,2714.843750 
z"/>
<path fill="#4FAE30" opacity="1.000000" stroke="none" 
	d="
M700.553955,2718.290039 
	C699.680969,2718.745605 698.404053,2718.188721 696.661072,2716.662598 
	C697.513306,2716.221680 698.831665,2716.750000 700.553955,2718.290039 
z"/>
<path fill="#4FAE30" opacity="1.000000" stroke="none" 
	d="
M943.557129,2863.174561 
	C942.862976,2863.736816 941.967957,2863.290771 940.752197,2861.974121 
	C941.497742,2861.108887 942.472595,2861.463135 943.557129,2863.174561 
z"/>
<path fill="#4FAE30" opacity="1.000000" stroke="none" 
	d="
M1112.382812,2962.466553 
	C1111.566650,2962.932861 1110.340698,2962.420654 1108.593506,2961.035156 
	C1109.372681,2960.603760 1110.672729,2961.045654 1112.382812,2962.466553 
z"/>
<path fill="#4FAE30" opacity="1.000000" stroke="none" 
	d="
M1243.541016,3039.171875 
	C1242.844971,3039.733154 1241.955566,3039.286621 1240.750610,3037.971436 
	C1241.497681,3037.106201 1242.468628,3037.459961 1243.541016,3039.171875 
z"/>
<path fill="#4FAE30" opacity="1.000000" stroke="none" 
	d="
M1543.535889,3215.176270 
	C1542.842773,3215.734863 1541.955322,3215.289307 1540.751465,3213.978516 
	C1541.494995,3213.117188 1542.463867,3213.470215 1543.535889,3215.176270 
z"/>
<path fill="#4FAE30" opacity="1.000000" stroke="none" 
	d="
M157.470825,55.855335 
	C170.575745,43.673775 188.016876,36.519550 206.583893,28.738983 
	C208.379059,34.364933 206.845825,38.793488 201.047028,41.411953 
	C192.127548,45.439541 183.640823,50.499229 174.550613,54.044388 
	C169.867538,55.870770 164.277756,55.372242 157.470825,55.855335 
z"/>
<path fill="#4FAE30" opacity="1.000000" stroke="none" 
	d="
M119.756973,4082.819824 
	C107.082092,4076.880127 97.986397,4065.660889 87.940750,4053.687744 
	C88.104851,4052.386475 88.755699,4052.265381 89.401909,4052.286377 
	C111.309875,4053.002441 117.515686,4058.899414 119.756973,4082.819824 
z"/>
<path fill="#4FAE30" opacity="1.000000" stroke="none" 
	d="
M87.695526,4050.955078 
	C75.906845,4043.376953 68.932861,4030.486084 60.271690,4017.371582 
	C66.900536,4015.579102 72.628143,4017.124512 76.140099,4024.036377 
	C77.859398,4027.420410 80.492447,4030.470947 83.192497,4033.196533 
	C87.791313,4037.838867 88.258469,4043.420166 87.695526,4050.955078 
z"/>
<path fill="#4FAE30" opacity="1.000000" stroke="none" 
	d="
M155.996277,4110.225586 
	C142.271973,4106.225586 132.116653,4095.657227 120.181969,4085.553223 
	C127.747444,4083.437744 135.034119,4084.318115 141.320221,4090.875732 
	C144.775818,4094.480713 150.060471,4096.332520 155.127472,4099.334473 
	C155.396774,4102.249512 155.694260,4105.470215 155.996277,4110.225586 
z"/>
<path fill="#4FAE30" opacity="1.000000" stroke="none" 
	d="
M124.590576,80.647736 
	C133.560349,71.796120 143.340469,64.063560 154.449844,56.073765 
	C156.467590,62.723236 154.957474,68.295891 148.193588,72.041809 
	C143.766830,74.493416 140.149384,78.372795 136.032974,81.428841 
	C132.658417,83.934135 129.032867,84.449951 124.590576,80.647736 
z"/>
<path fill="#4FAE30" opacity="1.000000" stroke="none" 
	d="
M24.114338,3935.618408 
	C17.579624,3926.807129 16.376953,3915.190918 14.225401,3902.190430 
	C22.568285,3899.521484 25.683197,3905.434082 27.153036,3911.763428 
	C28.891272,3919.248047 28.978657,3927.025146 24.114338,3935.618408 
z"/>
<path fill="#4FAE30" opacity="1.000000" stroke="none" 
	d="
M15.679516,267.444336 
	C16.062225,257.508179 18.128899,247.621170 20.844339,236.436813 
	C23.503647,237.486389 26.751341,239.595001 27.259161,242.231369 
	C28.223766,247.239136 27.981213,252.577560 27.573454,257.725861 
	C27.099524,263.709656 23.340113,266.923676 15.679516,267.444336 
z"/>
<path fill="#4FAE30" opacity="1.000000" stroke="none" 
	d="
M51.816284,167.543640 
	C56.524727,157.026642 62.854794,146.652573 70.361984,135.535919 
	C73.586021,145.008423 69.675270,153.673737 64.747437,162.221283 
	C62.083065,166.842758 58.276257,168.080292 51.816284,167.543640 
z"/>
<path fill="#4FAE30" opacity="1.000000" stroke="none" 
	d="
M91.839844,111.554474 
	C99.176865,102.275734 108.110680,93.145676 118.310730,83.512657 
	C120.429359,89.196732 119.575218,94.826035 114.638481,99.300804 
	C108.429840,104.928467 103.774391,113.153069 91.839844,111.554474 
z"/>
<path fill="#4FAE30" opacity="1.000000" stroke="none" 
	d="
M29.567928,215.968903 
	C31.313606,207.202515 34.542931,198.405426 38.844528,188.718079 
	C41.014954,191.596725 42.484081,195.302856 43.134781,199.147491 
	C44.533142,207.409576 41.061516,211.997742 29.567928,215.968903 
z"/>
<path fill="#4FAE30" opacity="1.000000" stroke="none" 
	d="
M179.566528,4124.005859 
	C172.797302,4122.056641 166.173721,4118.506836 158.707336,4113.791992 
	C162.959381,4111.454590 168.054230,4110.282715 172.781479,4109.195312 
	C179.134262,4111.836426 180.067612,4116.799316 179.566528,4124.005859 
z"/>
<path fill="#4FAE30" opacity="1.000000" stroke="none" 
	d="
M223.824249,24.172222 
	C229.488953,20.643137 235.371964,18.481398 242.624268,16.435616 
	C243.327332,26.053755 236.180359,28.683802 228.650009,30.307114 
	C227.509766,30.552912 225.597656,27.218138 223.824249,24.172222 
z"/>
<path fill="#4FAE30" opacity="1.000000" stroke="none" 
	d="
M36.019882,3968.195801 
	C32.517391,3963.798340 30.363266,3959.195557 28.251717,3953.296387 
	C34.034374,3952.099609 38.025108,3955.260498 41.055687,3959.699463 
	C44.127083,3964.198486 42.059460,3966.762939 36.019882,3968.195801 
z"/>
<path fill="#4FAE30" opacity="1.000000" stroke="none" 
	d="
M14.225423,3891.960938 
	C12.114524,3887.755371 11.428399,3883.507568 10.813910,3877.639404 
	C13.905526,3876.930664 17.620644,3877.068848 19.744623,3878.977783 
	C21.758953,3880.787598 23.060436,3884.487305 22.957333,3887.292725 
	C22.811909,3891.249756 18.899677,3891.583252 14.225423,3891.960938 
z"/>
<path fill="#4FAE30" opacity="1.000000" stroke="none" 
	d="
M12.351667,291.874634 
	C11.143137,287.673401 11.444993,283.369293 12.272979,277.530884 
	C14.082584,276.060547 15.441161,275.872772 16.637362,276.229492 
	C24.403343,278.545471 25.873869,282.771759 20.566389,288.442413 
	C18.969185,290.148926 16.131487,290.694427 12.351667,291.874634 
z"/>
<path fill="#4FAE30" opacity="1.000000" stroke="none" 
	d="
M282.418091,7.765670 
	C286.808990,7.784683 289.862640,7.990740 294.451996,8.294323 
	C295.246246,12.910778 293.600739,15.722595 288.073120,14.128923 
	C283.661041,12.856870 278.992340,12.474717 272.889984,11.435631 
	C274.588562,10.100042 277.834717,9.026378 282.418091,7.765670 
z"/>
<path fill="#4FAE30" opacity="1.000000" stroke="none" 
	d="
M251.800079,15.695570 
	C256.116730,13.827822 262.031921,12.184922 269.469666,10.659010 
	C269.672424,18.961552 268.331146,20.325970 262.388580,18.903942 
	C259.329132,18.171835 256.391357,16.931242 251.800079,15.695570 
z"/>
<path fill="#4FAE30" opacity="1.000000" stroke="none" 
	d="
M215.445129,4140.283691 
	C212.065842,4140.770020 208.728714,4139.785645 204.505432,4137.838867 
	C210.066788,4130.847656 212.030548,4131.167480 215.445129,4140.283691 
z"/>
<path fill="#4FAE30" opacity="1.000000" stroke="none" 
	d="
M278.822723,4158.098145 
	C277.328430,4158.651367 274.922943,4158.372070 271.564087,4157.295898 
	C273.044312,4156.754395 275.477936,4157.010254 278.822723,4158.098145 
z"/>
<path fill="#4FAE30" opacity="1.000000" stroke="none" 
	d="
M254.865204,4153.532227 
	C255.477310,4154.059082 253.787216,4154.394531 253.787216,4154.394531 
	C253.787216,4154.394531 252.199905,4153.723633 251.655579,4153.052734 
	C252.222534,4152.267090 253.269821,4152.475098 254.865204,4153.532227 
z"/>
<path fill="#4FAE30" opacity="1.000000" stroke="none" 
	d="
M211.929871,27.503185 
	C211.540588,26.317522 212.468765,25.512705 214.754486,25.230915 
	C215.023804,26.363182 214.068909,27.073212 211.929871,27.503185 
z"/>
<path fill="#164069" opacity="1.000000" stroke="none" 
	d="
M4066.982910,3980.249023 
	C4067.343018,3983.261963 4066.637451,3986.551514 4065.126709,3989.416260 
	C4034.191650,4048.075195 3990.145752,4093.855957 3930.029541,4125.551758 
	C3925.996582,4113.125977 3930.624268,4104.107422 3942.494385,4098.534180 
	C3953.795898,4093.227539 3964.949219,4087.605713 3978.122314,4081.167480 
	C3983.296875,4064.748291 3994.929443,4051.024902 4013.842529,4042.914062 
	C4015.577393,4034.210938 4018.625732,4025.698975 4025.887207,4019.285889 
	C4028.260010,4017.189697 4029.801025,4013.932617 4031.166016,4010.951660 
	C4038.160400,3995.678467 4050.524414,3986.538086 4066.982910,3980.249023 
z"/>
<path fill="#164069" opacity="1.000000" stroke="none" 
	d="
M3860.020264,17.361141 
	C3864.515381,16.605822 3869.174316,16.903229 3873.521240,18.225918 
	C3914.478760,30.688681 3951.540283,50.459694 3984.994873,78.989563 
	C3983.535889,86.092247 3979.583740,89.062187 3973.460449,86.332413 
	C3968.687744,84.204613 3964.391113,81.011345 3959.873291,78.307945 
	C3949.785645,72.272087 3941.297852,63.582729 3929.405518,60.519691 
	C3920.805908,58.304798 3920.418457,50.136955 3918.583984,42.395226 
	C3901.584717,46.896942 3887.011963,39.570362 3872.037109,35.275253 
	C3864.620605,33.148067 3859.988281,27.320307 3860.020264,17.361141 
z"/>
<path fill="#164069" opacity="1.000000" stroke="none" 
	d="
M3988.068359,84.233673 
	C4009.103271,96.218414 4023.932373,115.891159 4038.659668,135.467575 
	C4046.608398,146.033173 4052.964111,157.797134 4060.238281,170.409180 
	C4049.397949,173.415894 4040.912109,170.100662 4035.712891,159.608658 
	C4034.273926,156.704681 4032.028809,154.037369 4029.652588,151.791840 
	C4023.235107,145.727005 4018.147949,138.883255 4016.080322,130.191315 
	C4014.906738,125.257706 4012.116455,121.967514 4007.597412,119.866379 
	C3993.138184,113.143837 3988.321533,100.824249 3988.068359,84.233673 
z"/>
<path fill="#164069" opacity="1.000000" stroke="none" 
	d="
M3920.558838,4128.161133 
	C3903.865479,4140.897461 3883.096924,4146.452148 3862.458252,4152.331055 
	C3859.949463,4153.045410 3857.416748,4153.676270 3853.448975,4154.359375 
	C3851.321533,4144.917969 3856.872559,4139.452637 3864.539062,4135.875000 
	C3875.368164,4130.821289 3886.464600,4126.343750 3897.382324,4121.476074 
	C3906.386719,4117.461426 3912.584717,4122.942871 3920.558838,4128.161133 
z"/>
<path fill="#164069" opacity="1.000000" stroke="none" 
	d="
M3808.055664,9.819661 
	C3812.342041,8.287107 3816.683838,8.316550 3822.625244,8.001305 
	C3834.543945,9.549761 3844.863525,11.442905 3856.437988,14.314022 
	C3856.107910,16.462976 3854.285156,17.415617 3852.976074,18.840281 
	C3844.265137,28.319702 3844.466309,27.944082 3832.073975,22.924046 
	C3826.758301,20.770653 3820.607178,20.622398 3814.809814,19.731480 
	C3809.917725,18.979645 3808.392578,15.728690 3808.055664,9.819661 
z"/>
<path fill="#164069" opacity="1.000000" stroke="none" 
	d="
M4089.402832,3915.996094 
	C4087.935791,3927.268799 4084.951416,3938.549072 4080.984863,3950.914551 
	C4069.033447,3947.701660 4066.713867,3944.437988 4068.755859,3935.674561 
	C4069.339111,3933.172363 4070.904297,3930.871582 4071.321777,3928.362549 
	C4072.909180,3918.818604 4078.774170,3915.309326 4089.402832,3915.996094 
z"/>
<path fill="#164069" opacity="1.000000" stroke="none" 
	d="
M3836.299805,4156.414062 
	C3835.242432,4157.460938 3832.870850,4158.402832 3829.208496,4159.166992 
	C3830.273438,4158.095215 3832.629639,4157.201660 3836.299805,4156.414062 
z"/>
</svg>