<?xml version="1.0" encoding="UTF-8" standalone="yes"?>
<svg version="1.2" baseProfile="tiny-ps" viewBox="0 0 150 150" xmlns="http://www.w3.org/2000/svg">
  <title>bimi-svg-tiny-12-ps</title>
  <g>
    <g fill="#4fad30" transform="matrix(.1 0 0 -.1 0 150)">
      <path d="M414 1112c-6-4-16-17-23-29l-11-22V441l11-28c5-15 16-31 22-35l12-8h265v156l-87 49c-48 27-95 57-105 67l-18 18v278l18 22 18 22 47 5 47 6v94l-18 16-19 17h-74c-41 0-79-4-85-8zm503-10-17-19v-90l47-6 47-5 18-22 18-22V805c0-73-3-141-6-149l-6-16-104-61-104-61v-28c0-15 3-48 6-74l7-46h266l15 16 16 15v688l-16 15-15 16H933l-16-18zM612 866l3-114 19-21 19-21h97v270H608l4-114zm148-21V710h97l19 21 19 21 3 114 4 114H760V845z"/>
    </g>
    <g fill="#4d743d" transform="matrix(.1 0 0 -.1 0 150)">
      <path d="m917 1102-17-19v-90l47-6 47-5 18-22 18-22V805c0-73-3-141-6-149l-6-16-104-61-104-61v-28c0-15 3-48 6-74l7-46h266l15 16 16 15v688l-16 15-15 16H933l-16-18zM384 750c0-179 2-252 3-162 2 89 2 235 0 325-1 89-3 16-3-163zm376 95V710h97l19 21 19 21 3 114 4 114H760V845z"/>
    </g>
    <g fill="#15406b" transform="matrix(.1 0 0 -.1 0 150)">
      <path d="m917 1102-17-19v-90l47-6 47-5 18-22 18-22V805c0-73-3-141-6-149l-6-16-104-61-104-61v-28c0-15 3-48 6-74l7-46h266l15 16 16 15v688l-16 15-15 16H933l-16-18zM760 845V710h97l19 21 19 21 3 114 4 114H760V845z"/>
    </g>
    <g fill="#153e67" transform="matrix(.1 0 0 -.1 0 150)">
      <path d="m917 1102-17-19v-90l47-6 47-5 18-22 18-22v10c0 6-5 14-10 17l-10 6 6 11 7 11-11-7-12-7v22l-9-6-10-5-6 10-7 11 12 14 12 15-6 15-6 16 16 6 15 6 11-11 10-10-19-28-18-28 11 7 12 7 6-15 5-15h39l6-16c9-24 7-77-4-94l-10-15 3 44 2 44-12 4-12 4 4-21 4-21-10 6-9 6V659l-25-23c-26-24-36-47-12-27 8 6 17 8 20 5 3-4 9 5 13 20 3 14 9 26 13 26 3 0 5 53 4 117l-1 118 12-85c7-47 16-93 20-102l8-18h-18l-1-45-2-45 10-5c5-4 9-13 9-21v-14h-30v-15c0-8 5-15 10-15h10V430H860l-1 18v17l-9-20c-5-11-9-22-9-25-1-3 45-4 101-2l103 4 28-11 28-11-6-10-6-10H855l-13 9-13 8 3 54 3 54 13-3 12-2v42l19-5 20-5-5 13-5 12 15 6 15 6 6-9c4-6 4-14 1-18l-5-9 17 2c9 1 30 7 45 14 16 6 33 11 38 11s9 5 9 11v11l-27-5c-16-3-38-8-50-12l-23-7v13c0 7 3 10 6 6 4-3 13 1 21 9 29 28 7 23-54-13l-62-37 5-8 5-8-15 6-16 6-6-16-6-16 7-65 7-65h267l15 16 16 15v688l-16 15-15 16H933l-16-18zm33-18c-1-4 4-11 12-16l13-9-22 6-23 6v-32l20 6 20 6v-21h-22l-23-1 19-14 20-15h-54v73l18 17 17 17 3-8c2-5 3-11 2-15zm147 7 12-16 1-339V398l-15 12c-8 7-13 16-10 20 2 4 5 153 5 331l1 324-57 2-57 2-11 11-11 11 65-2 65-3 12-15zm-17-50c0-5-3-16-6-25l-6-16-9 6c-5 3-9 14-9 25v19h15c8 0 15-4 15-9zM760 845V710h97l19 21 19 21 3 114 4 114h-20V778l-8-6-7-7 6 18 7 18-10-6-9-6 6-29 6-30h-55l6 16c3 9 6 60 6 115v100l23 9 22 9h-30l-30 1 3-112 2-113-14-19-15-18-10 7-11 6v238l18 4 17 5-22 1-23 1V845zm34 10V745l3 58c2 32 2 81 0 110l-3 52V855z"/>
    </g>
    <g fill="#0e365e" transform="matrix(.1 0 0 -.1 0 150)">
      <path d="m917 1102-17-19v-93l18 1 17 1-12 5-13 5v84l12 12 12 12h152l12-12 12-12V404l-12-12-12-12H832l-6 45-7 44 10 19 10 18-9 14-9 14-7-17-6-17 7-65 7-65h267l15 16 16 15v688l-16 15-15 16H933l-16-18zm43-112c8-5 20-10 25-10h10l-15 10c-8 5-19 10-25 10h-10l15-10zM760 851V722l16-6 17-6-12 14-12 14 3 121 3 121h-15V851zm127 28c1-55 4-103 7-107 3-3 6 43 6 101v107h-15l2-101zm124 84c7-12 15-20 18-17 3 2-3 12-13 22l-18 17 13-22zm23-36c-2-7-3-69-2-138l3-124 5 138c3 75 4 137 2 137-1 0-5-6-8-13zM867 737l-19-19-24 5-24 4v-17h57l18 20c24 26 16 33-8 7zm134-104c-13-13-20-23-14-23 11 0 49 38 42 43-2 2-15-7-28-20zm-58-35c-13-6-23-15-23-20v-8l25 16c37 24 35 30-2 12zm-78-48c-16-11-25-20-20-20 10 0 64 39 55 40-3 0-18-9-35-20zm71-2 5-8 10 5c13 9 11 12-6 12h-14l5-9z"/>
    </g>
    <g fill="#102f4f" transform="matrix(.1 0 0 -.1 0 150)">
      <path d="m925 1110-6-10 15 6c18 7 21 14 7 14-6 0-13-4-16-10zm-31-225V785l3 53c2 29 2 74 0 100l-3 47V885zm-132-50v-30l5 18c2 9 2 23 0 30l-5 12v-30zm168-245-15-10h12c6 0 15 5 18 10 8 12 4 12-15 0zm-116-74c-3-8-4-31-2-52l3-39 5 53c5 53 4 63-6 38zm271-136-6-10 15 6c18 7 21 14 7 14-6 0-13-4-16-10zm-257-7c6-2 18-2 25 0l12 5h-50l13-5z"/>
    </g>
  </g>
</svg>